<?xml version="1.0" encoding="UTF-8"?>
<svg version="1.1" xmlns="http://www.w3.org/2000/svg" width="647" height="201">
<path d="M0 0 C42.9 0 85.8 0 130 0 C130.0825 18.52125 130.165 37.0425 130.25 56.125 C130.28641602 61.94914551 130.32283203 67.77329102 130.36035156 73.77392578 C130.37841797 80.94702148 130.37841797 80.94702148 130.3817749 84.31686401 C130.38787262 86.64461333 130.40184729 88.97235089 130.42230225 91.30001831 C130.64712949 118.2578004 124.5487594 136.83853058 105.75 156.6875 C94.33814144 167.61716736 79.20070079 178.4938328 62.84375 178.27734375 C43.72860467 176.41309194 27.04464725 160.93400368 15 147 C7.35030987 137.19807024 -0.1339088 124.80300389 -0.12025452 112.07720947 C-0.12163201 111.08930546 -0.12300951 110.10140144 -0.12442875 109.08356094 C-0.12083064 108.00185497 -0.11723253 106.920149 -0.11352539 105.80566406 C-0.11364593 104.6454562 -0.11376646 103.48524834 -0.11389065 102.28988266 C-0.11314386 98.53177732 -0.10552618 94.77372148 -0.09765625 91.015625 C-0.09618611 88.69645207 -0.09516584 86.3772788 -0.09460449 84.05810547 C-0.08935998 75.45539859 -0.0753988 66.85269881 -0.0625 58.25 C-0.041875 39.0275 -0.02125 19.805 0 0 Z " fill="#02365F" transform="translate(0,1)"/>
<path d="M0 0 C0.66 0 1.32 0 2 0 C2.25365867 5.96097878 1.3696946 9.8363743 0 16 C31.35 16 62.7 16 95 16 C94.01 10.555 94.01 10.555 93 5 C93 3.35 93 1.7 93 0 C96.9278945 1.93870371 100.80977714 3.96336535 104.6875 6 C105.37650391 6.35578125 106.06550781 6.7115625 106.77539062 7.078125 C111.88574349 9.77148698 111.88574349 9.77148698 113 12 C113.24014407 15.66149074 113.18518986 19.3315042 113.1875 23 C113.19974609 24.02351563 113.21199219 25.04703125 113.22460938 26.1015625 C113.22654297 27.07867187 113.22847656 28.05578125 113.23046875 29.0625 C113.23457764 29.96097656 113.23868652 30.85945313 113.24291992 31.78515625 C113 34 113 34 111 36 C108.77329159 36.24888897 108.77329159 36.24888897 105.94480896 36.24723816 C104.87490723 36.25143265 103.80500549 36.25562714 102.7026825 36.25994873 C101.5239003 36.25432922 100.3451181 36.24870972 99.13061523 36.24291992 C97.89322601 36.24481827 96.65583679 36.24671661 95.38095093 36.24867249 C91.98226012 36.25174854 88.58381118 36.24585709 85.18514895 36.23571944 C81.63418136 36.22695172 78.08321803 36.22869613 74.53224182 36.2290802 C68.56940513 36.22814308 62.60661927 36.21945205 56.64379883 36.20581055 C49.74097554 36.19007732 42.83820792 36.18481266 35.935368 36.1855461 C29.30494247 36.18615555 22.67453514 36.18105816 16.04411507 36.17275429 C13.21756918 36.16921555 10.39102973 36.1673902 7.56448174 36.16686058 C3.62296439 36.16567344 -0.31850623 36.15597716 -4.26000977 36.14526367 C-6.03121941 36.14594345 -6.03121941 36.14594345 -7.83821106 36.14663696 C-9.43883392 36.14023949 -9.43883392 36.14023949 -11.0717926 36.13371277 C-12.47132596 36.131199 -12.47132596 36.131199 -13.89913273 36.12863445 C-16 36 -16 36 -17 35 C-17.33630182 31.07122852 -17.3250237 27.12881251 -17.375 23.1875 C-17.41238281 22.08083984 -17.44976563 20.97417969 -17.48828125 19.83398438 C-17.57705493 11.6816013 -17.57705493 11.6816013 -14.80078125 8.40234375 C-13.87652344 7.93957031 -12.95226562 7.47679687 -12 7 C-11.14019531 6.53335938 -10.28039062 6.06671875 -9.39453125 5.5859375 C-8.11642578 4.98652344 -8.11642578 4.98652344 -6.8125 4.375 C-4.03617225 3.06800313 -2.17863343 2.17863343 0 0 Z " fill="#063A63" transform="translate(17,165)"/>
<path d="M0 0 C1.65 0 3.3 0 5 0 C5 1.32 5 2.64 5 4 C5.66 4 6.32 4 7 4 C7 6.31 7 8.62 7 11 C7.66 11 8.32 11 9 11 C9 14.96 9 18.92 9 23 C8.34 23 7.68 23 7 23 C7 23.66 7 24.32 7 25 C7.99 25.33 8.98 25.66 10 26 C10.042721 27.66611905 10.04063832 29.33382885 10 31 C8.03177114 32.96822886 4.65191291 32.66248381 2 33 C2.81082031 33.35964844 3.62164062 33.71929687 4.45703125 34.08984375 C7 36 7 36 7.63671875 39.06640625 C7.65347656 40.22011719 7.67023438 41.37382813 7.6875 42.5625 C7.5012113 47.32484688 7.5012113 47.32484688 10 51 C9.9375 53.5 9.9375 53.5 9 56 C6.4375 57.3125 6.4375 57.3125 4 58 C4.99 58.66 5.98 59.32 7 60 C7.29296875 63.2578125 7.29296875 63.2578125 7.1875 67.125 C7.14689453 69.04699219 7.14689453 69.04699219 7.10546875 71.0078125 C7.05326172 72.48894531 7.05326172 72.48894531 7 74 C7.99 74.33 8.98 74.66 10 75 C9.67 76.65 9.34 78.3 9 80 C6.03 80.99 6.03 80.99 3 82 C3.66 82.45375 4.32 82.9075 5 83.375 C5.66 83.91125 6.32 84.4475 7 85 C7 85.66 7 86.32 7 87 C11.62 87 16.24 87 21 87 C21 87.66 21 88.32 21 89 C25.99607067 88.4831651 30.23743683 87.67849647 35 86 C34.566875 85.04738281 34.13375 84.09476562 33.6875 83.11328125 C33.12451671 81.84656885 32.56204352 80.57962965 32 79.3125 C31.71382813 78.68666016 31.42765625 78.06082031 31.1328125 77.41601562 C29.54255472 73.80007233 28.63673348 70.95809151 29 67 C29.58007812 67.20496094 30.16015625 67.40992187 30.7578125 67.62109375 C37.24376365 69.90135348 37.24376365 69.90135348 44 71 C44.59683594 70.67644531 45.19367188 70.35289063 45.80859375 70.01953125 C48.58997033 68.72552182 50.69777834 68.80232806 53.75 68.875 C54.73484375 68.89304687 55.7196875 68.91109375 56.734375 68.9296875 C57.48203125 68.95289062 58.2296875 68.97609375 59 69 C59 69.66 59 70.32 59 71 C57.2421875 72.33203125 57.2421875 72.33203125 54.875 73.8125 C50.98439752 76.31404062 47.48371461 78.96291547 44 82 C42.02 81.01 42.02 81.01 40 80 C39.67 80.33 39.34 80.66 39 81 C40.485 81.99 40.485 81.99 42 83 C41.65327061 91.32150535 37.09277693 96.22266079 31.1875 101.75 C27.06649598 105.21990126 21.58107032 109 16 109 C16 109.66 16 110.32 16 111 C16.99 111.33 17.98 111.66 19 112 C19 112.66 19 113.32 19 114 C1.58183811 115.29824809 -15.45989348 111.30137648 -29.64453125 101.09765625 C-32.13908248 98.87614048 -33.55557652 96.83821117 -35.1875 93.9375 C-35.67605469 93.08027344 -36.16460937 92.22304687 -36.66796875 91.33984375 C-37.10753906 90.56769531 -37.54710937 89.79554688 -38 89 C-38.66 88.01 -39.32 87.02 -40 86 C-40 85.01 -40 84.02 -40 83 C-38.68 83 -37.36 83 -36 83 C-36.99 81.68 -37.98 80.36 -39 79 C-38.34 79 -37.68 79 -37 79 C-36.67 77.68 -36.34 76.36 -36 75 C-33.03 74.505 -33.03 74.505 -30 74 C-29.34 75.98 -28.68 77.96 -28 80 C-26.9790625 80.0928125 -26.9790625 80.0928125 -25.9375 80.1875 C-21.96821063 81.28538855 -19.21360445 83.49023975 -16 86 C-16.33 85.01 -16.66 84.02 -17 83 C-11.26157749 82.79586639 -6.39460953 82.72858546 -1 85 C-1 83.68 -1 82.36 -1 81 C-1.99 80.67 -2.98 80.34 -4 80 C-4.125 77.625 -4.125 77.625 -4 75 C-3.34 74.34 -2.68 73.68 -2 73 C-1.85492305 70.25514407 -1.81347577 67.61519457 -1.875 64.875 C-1.88402344 64.12089844 -1.89304688 63.36679688 -1.90234375 62.58984375 C-1.9259313 60.72642746 -1.96180281 58.86317407 -2 57 C-2.99 56.505 -2.99 56.505 -4 56 C-4 54.02 -4 52.04 -4 50 C-3.01 49.67 -2.02 49.34 -1 49 C-1 43.39 -1 37.78 -1 32 C-1.99 31.67 -2.98 31.34 -4 31 C-4.08226668 27.95613276 -3.97608217 25.92824652 -3 23 C-2.931009 20.93854893 -2.91532273 18.87498599 -2.9375 16.8125 C-2.94652344 15.72582031 -2.95554688 14.63914062 -2.96484375 13.51953125 C-2.97644531 12.68808594 -2.98804688 11.85664062 -3 11 C-2.34 11 -1.68 11 -1 11 C-1.020625 9.9275 -1.04125 8.855 -1.0625 7.75 C-1.0142016 4.85209576 -0.86844115 2.71387859 0 0 Z " fill="#EDF7FB" transform="translate(62,42)"/>
<path d="M0 0 C10.56 0 21.12 0 32 0 C32 1.32 32 2.64 32 4 C31.43410156 4.13277344 30.86820313 4.26554688 30.28515625 4.40234375 C29.55167969 4.57894531 28.81820312 4.75554688 28.0625 4.9375 C27.33160156 5.11152344 26.60070312 5.28554687 25.84765625 5.46484375 C24.00030102 5.83887569 24.00030102 5.83887569 23 7 C22.88097874 8.45023976 22.82993807 9.90614716 22.80712891 11.36108398 C22.79106598 12.28972763 22.77500305 13.21837128 22.75845337 14.17515564 C22.71394178 18.4614091 22.67286925 22.74750434 22.64990234 27.03393555 C22.6334179 29.28697086 22.60622866 31.53995552 22.56787109 33.79272461 C22.51272048 37.04828929 22.49116179 40.30262288 22.4765625 43.55859375 C22.45389313 44.55378525 22.43122375 45.54897675 22.40786743 46.57432556 C22.42899315 53.66812472 24.00125812 59.08492468 28 65 C33.92104181 70.81913747 40.61895514 72.1001228 48.75 72.375 C56.16123144 72.24096709 62.95592165 71.19879968 68.90625 66.4921875 C75.29992463 59.7537559 76.46021938 51.25817909 76.328125 42.328125 C76.32531525 40.99995758 76.32531525 40.99995758 76.32244873 39.6449585 C76.31577505 37.78947127 76.30195524 35.93399698 76.28125 34.07861328 C76.24993019 31.24368153 76.24025388 28.40930694 76.234375 25.57421875 C76.22520951 23.76301407 76.21483519 21.95181502 76.203125 20.140625 C76.19887512 19.29783997 76.19462524 18.45505493 76.19024658 17.58673096 C76.18063904 16.79530701 76.17103149 16.00388306 76.16113281 15.18847656 C76.15430481 14.49836487 76.14747681 13.80825317 76.14044189 13.097229 C76.01192109 10.49558054 76.01192109 10.49558054 75 6 C70.05 5.01 70.05 5.01 65 4 C65 2.68 65 1.36 65 0 C74.9 0 84.8 0 95 0 C95 1.32 95 2.64 95 4 C92.98177083 4.42317708 90.96354167 4.84635417 88.9453125 5.26953125 C86.62953451 5.92308838 86.62953451 5.92308838 85 9 C84.68813644 10.97287005 84.68813644 10.97287005 84.71289062 13.14501953 C84.69276917 14.39244431 84.69276917 14.39244431 84.67224121 15.66506958 C84.66696411 16.56192474 84.66168701 17.45877991 84.65625 18.3828125 C84.6416272 19.31165253 84.62700439 20.24049255 84.61193848 21.19747925 C84.56540706 24.17327547 84.53126044 27.14900655 84.5 30.125 C84.45860603 34.02367504 84.40474605 37.92190041 84.34375 41.8203125 C84.3384729 42.70502228 84.3331958 43.58973206 84.32775879 44.50125122 C84.16414511 54.87511997 82.31697844 63.07881947 75.28125 70.9140625 C66.89312671 78.9927878 55.82294202 81.34153976 44.44921875 81.1484375 C34.01324961 80.51595452 24.35217705 78.01068838 17.0625 70.125 C12.03385487 63.84215161 9.90611556 57.18600489 9.84228516 49.1496582 C9.83202301 48.2155159 9.82176086 47.2813736 9.81118774 46.31892395 C9.80388641 45.32293686 9.79658508 44.32694977 9.7890625 43.30078125 C9.76101812 41.18423674 9.73235387 39.06770036 9.703125 36.95117188 C9.6617067 33.61971051 9.62481068 30.28840524 9.59863281 26.95678711 C9.57115858 23.73780218 9.5253179 20.51950449 9.4765625 17.30078125 C9.47330963 16.29872147 9.47005676 15.29666168 9.46670532 14.26423645 C9.44185562 12.87720772 9.44185562 12.87720772 9.41650391 11.4621582 C9.40841705 10.6467305 9.4003302 9.8313028 9.39199829 8.99116516 C9.26263885 8.33408066 9.13327942 7.67699615 9 7 C5.81237635 4.87491756 3.73487777 4.4979837 0 4 C0 2.68 0 1.36 0 0 Z " fill="#00355F" transform="translate(159,1)"/>
<path d="M0 0 C0 6.93 0 13.86 0 21 C-1.32 20.67 -2.64 20.34 -4 20 C-5.01953125 17.92578125 -5.01953125 17.92578125 -5.8125 15.3125 C-7.78701043 9.97598531 -10.0427951 6.85557621 -15 4 C-24.4422343 0.00754402 -32.52259874 0.35363666 -42 4 C-50.19340546 8.41183371 -55.04847993 15.31571979 -58 24 C-61.36953165 36.32942262 -60.57367448 48.04688051 -54.3125 59.375 C-50.20745815 65.68966932 -44.5050241 70.16452147 -37.3203125 72.53125 C-28.18650167 74.37646431 -19.71940005 72.82807377 -11 70 C-11.1095693 66.54099522 -11.24026848 63.08310891 -11.375 59.625 C-11.42140625 58.14773437 -11.42140625 58.14773437 -11.46875 56.640625 C-11.52675781 55.22910156 -11.52675781 55.22910156 -11.5859375 53.7890625 C-11.6173584 52.91975098 -11.6487793 52.05043945 -11.68115234 51.15478516 C-11.81229433 48.79038206 -11.81229433 48.79038206 -14 47 C-16.65719837 46.31822002 -16.65719837 46.31822002 -19.625 45.875 C-20.62789063 45.70742187 -21.63078125 45.53984375 -22.6640625 45.3671875 C-23.82035156 45.18542969 -23.82035156 45.18542969 -25 45 C-25 44.01 -25 43.02 -25 42 C-13.78 42 -2.56 42 9 42 C8.67 43.32 8.34 44.64 8 46 C5.5 47.1875 5.5 47.1875 3 48 C1.34920558 49.65079442 1.77450553 51.63736179 1.68359375 53.91015625 C1.64169922 54.89951172 1.59980469 55.88886719 1.55664062 56.90820312 C1.51732422 57.94912109 1.47800781 58.99003906 1.4375 60.0625 C1.37272461 61.62967773 1.37272461 61.62967773 1.30664062 63.22851562 C1.20018775 65.81886884 1.0981724 68.40932186 1 71 C-15.58433436 77.26094467 -34.12567586 82.22912947 -51.421875 75.3203125 C-61.99641077 69.90486842 -68.56191306 61.42744112 -72.3046875 50.21484375 C-74.82551946 38.55953643 -73.83597812 26.0831911 -67.64453125 15.734375 C-66.19831443 13.70269239 -64.66365822 11.85654613 -63 10 C-62.48695313 9.38382813 -61.97390625 8.76765625 -61.4453125 8.1328125 C-45.49750791 -9.64631894 -20.45256676 -3.91236119 0 0 Z " fill="#00355F" transform="translate(326,96)"/>
<path d="M0 0 C3.24208567 0.35049575 4.61527704 0.56221181 6.8125 3.0625 C7.204375 3.701875 7.59625 4.34125 8 5 C7.01 5.33 6.02 5.66 5 6 C4.30400689 8.00992204 4.30400689 8.00992204 4 10.375 C3.45141098 13.88368395 2.91344392 15.828924 0 18 C-0.99 18 -1.98 18 -3 18 C-3 18.99 -3 19.98 -3 21 C-2.38125 21.2475 -1.7625 21.495 -1.125 21.75 C1.35068687 23.20628639 1.95125002 24.37812506 3 27 C6.465 26.505 6.465 26.505 10 26 C10 27.98 10 29.96 10 32 C11.98 32 13.96 32 16 32 C15.67 33.98 15.34 35.96 15 38 C16.65 38.33 18.3 38.66 20 39 C19.25 43.75 19.25 43.75 17 46 C18.65 46.66 20.3 47.32 22 48 C20.63016497 51.16115776 20.0109362 51.9927092 17 54 C18.32 55.32 19.64 56.64 21 58 C17.25 61 17.25 61 15 61 C15 61.66 15 62.32 15 63 C15.66 63 16.32 63 17 63 C17.495 64.485 17.495 64.485 18 66 C14.69453961 67.98170967 12.20178541 68.24423132 8.375 68.1875 C7.41335937 68.18105469 6.45171875 68.17460938 5.4609375 68.16796875 C3 68 3 68 1 67 C1.495 74.92 1.495 74.92 2 83 C0.02 83 -1.96 83 -4 83 C-3.67 77.72 -3.34 72.44 -3 67 C-4.485 67.495 -4.485 67.495 -6 68 C-7.83056393 68.11854556 -9.66564306 68.17517233 -11.5 68.1875 C-12.4590625 68.20167969 -13.418125 68.21585937 -14.40625 68.23046875 C-17 68 -17 68 -20 66 C-19.34 64.35 -18.68 62.7 -18 61 C-19.65 60.34 -21.3 59.68 -23 59 C-22.505 58.071875 -22.505 58.071875 -22 57.125 C-20.85806765 55.08981656 -20.85806765 55.08981656 -21 53 C-22.45833358 51.37485532 -22.45833358 51.37485532 -24 50 C-23.67 49.01 -23.34 48.02 -23 47 C-21.515 46.505 -21.515 46.505 -20 46 C-20.515625 45.401875 -21.03125 44.80375 -21.5625 44.1875 C-22.036875 43.465625 -22.51125 42.74375 -23 42 C-22.67 41.01 -22.34 40.02 -22 39 C-20.35 39 -18.7 39 -17 39 C-17.33 36.69 -17.66 34.38 -18 32 C-16.35 32 -14.7 32 -13 32 C-12.67 30.02 -12.34 28.04 -12 26 C-7.125 26.875 -7.125 26.875 -6 28 C-4.71223847 25.22174544 -4.71223847 25.22174544 -4 22 C-5.1075902 19.57715762 -5.1075902 19.57715762 -7 18 C-10.4707369 18 -13.5359466 19.86217462 -16.6875 21.22265625 C-17.450625 21.47917969 -18.21375 21.73570313 -19 22 C-19.66 21.67 -20.32 21.34 -21 21 C-20.55269531 20.56429687 -20.10539062 20.12859375 -19.64453125 19.6796875 C-16.74975205 16.82811396 -13.94393813 14.01517094 -11.4375 10.8125 C-8.87450259 7.8551953 -6.25983122 6.12597688 -3 4 C-1.16699091 1.89424357 -1.16699091 1.89424357 0 0 Z " fill="#7ABD41" transform="translate(31,21)"/>
<path d="M0 0 C0.495 0.495 0.495 0.495 1 1 C3.86688248 0.90903444 6.70300515 0.76232012 9.5625 0.5625 C10.36880859 0.51029297 11.17511719 0.45808594 12.00585938 0.40429688 C14.00421738 0.27422624 16.00215386 0.13770944 18 0 C18 2.97 18 5.94 18 9 C14.37 9 10.74 9 7 9 C7.20625 10.175625 7.4125 11.35125 7.625 12.5625 C8.28221728 17.9535867 7.19407084 22.02519054 4.375 26.6875 C-0.17467836 31.11744998 -6.20871937 34.01130039 -12.62109375 33.9921875 C-13.55050781 33.95351562 -14.47992188 33.91484375 -15.4375 33.875 C-19.75468986 33.83459849 -22.69243279 33.92054088 -26 37 C-26 37.99 -26 38.98 -26 40 C-17.51300287 41.56940881 -9.24754179 42.32409827 -0.62573242 42.48217773 C5.48238808 42.68159796 9.79413946 43.85375731 14.3125 48.25 C16.42060246 51.68542624 16.93047959 53.9678164 17 58 C15.25163324 64.52723589 11.47690652 68.17470827 6 72 C-1.49454732 76.12761259 -8.36414048 77.20785475 -16.8125 77.3125 C-17.58142578 77.34150391 -18.35035156 77.37050781 -19.14257812 77.40039062 C-25.78050856 77.4732118 -30.97155534 75.64988907 -36 71.25 C-37.52174233 67.82607975 -37.76818486 64.62351348 -37 61 C-34.875 58.3125 -34.875 58.3125 -32 56 C-30.89513511 55.06332297 -29.79095877 54.12583311 -28.6875 53.1875 C-27.800625 52.465625 -26.91375 51.74375 -26 51 C-26.55429687 50.67386719 -27.10859375 50.34773438 -27.6796875 50.01171875 C-28.40414063 49.57472656 -29.12859375 49.13773438 -29.875 48.6875 C-30.59429687 48.25824219 -31.31359375 47.82898438 -32.0546875 47.38671875 C-34 46 -34 46 -36 43 C-36.0625 40.0625 -36.0625 40.0625 -35 37 C-31.96064314 34.45813377 -29.02232424 33 -25 33 C-25 32.34 -25 31.68 -25 31 C-25.5775 30.7525 -26.155 30.505 -26.75 30.25 C-30.76115927 28.02157818 -33.21842947 25.19283408 -35 21 C-35.88819022 15.50561401 -35.12085417 10.70688245 -32.40625 5.859375 C-25.14681439 -3.73921209 -10.16510438 -7.05910026 0 0 Z M-23 4 C-26.10094532 9.00152472 -26.38836514 12.83783408 -25.578125 18.6328125 C-24.5247379 22.94600563 -22.21368361 25.69962471 -19.25 28.875 C-15.87125454 30.56437273 -12.65054212 30.66043605 -9 30 C-5.42925848 27.82650516 -3.54851439 25.84085664 -2 22 C-1.05933084 15.06875353 -1.35275603 9.22386365 -5.57421875 3.4921875 C-8.25416696 0.68741978 -10.72918223 0.19551043 -14.4375 -0.375 C-18.17391645 0.17179265 -20.12993997 1.56668823 -23 4 Z M-27 56 C-28.71510577 58.32658672 -28.71510577 58.32658672 -29 61 C-27.52498932 66.05717949 -24.73809728 68.51051363 -20.3046875 71.01953125 C-13.88532707 73.7504795 -7.55904786 73.61198246 -1.11328125 71.0703125 C3.15342024 68.90935833 6.99143856 66.57853885 8.79296875 61.97265625 C9.43493137 58.55944906 9.3173993 56.4951429 7.4375 53.5625 C2.10627546 50.14504837 -4.84223674 50.72461088 -11 50.625 C-11.8765625 50.58761719 -12.753125 50.55023438 -13.65625 50.51171875 C-19.91838701 50.42684039 -22.68418762 51.41146646 -27 56 Z " fill="#00355F" transform="translate(487,124)"/>
<path d="M0 0 C8.25 0 16.5 0 25 0 C24.67 1.32 24.34 2.64 24 4 C22.68 4.33 21.36 4.66 20 5 C20.57410073 9.38878997 21.67622502 12.95992112 23.50390625 16.984375 C23.99697266 18.08394531 24.49003906 19.18351562 24.99804688 20.31640625 C25.51431641 21.44949219 26.03058594 22.58257812 26.5625 23.75 C27.5878561 26.01416923 28.61015752 28.27972514 29.62890625 30.546875 C30.08338135 31.54557617 30.53785645 32.54427734 31.00610352 33.57324219 C32 36 32 36 32 38 C32.66 38 33.32 38 34 38 C34.37125 36.80375 34.7425 35.6075 35.125 34.375 C36.92517595 28.85213009 39.39745913 23.66533583 41.890625 18.4296875 C43.17254602 14.46656546 42.94270861 12.02255246 42 8 C39.83376752 4.69364516 36.68396977 4.06425793 33 3 C33 2.01 33 1.02 33 0 C41.58 0 50.16 0 59 0 C59 0.99 59 1.98 59 3 C57.35 3.66 55.7 4.32 54 5 C54.47518846 12.0469438 57.28901363 18.00926818 60.0625 24.4375 C60.77116211 26.1071582 60.77116211 26.1071582 61.49414062 27.81054688 C62.65539793 30.54360699 63.82418054 33.27318079 65 36 C68.78306316 31.34266522 70.58452622 26.04006069 72.75 20.5 C73.17410156 19.45457031 73.59820313 18.40914062 74.03515625 17.33203125 C74.43089844 16.32527344 74.82664062 15.31851563 75.234375 14.28125 C75.77916504 12.90549805 75.77916504 12.90549805 76.33496094 11.50195312 C77.04940166 8.8141453 77.15658594 7.52166727 76 5 C73.00384054 3.6954344 73.00384054 3.6954344 70 3 C70 2.01 70 1.02 70 0 C76.93 0 83.86 0 91 0 C90.67 1.32 90.34 2.64 90 4 C88.82074951 4.70721191 88.82074951 4.70721191 87.61767578 5.42871094 C79.31255622 10.41395152 75.68798832 26.83250954 72.125 35.75 C71.52649946 37.23716349 70.92754377 38.72414388 70.328125 40.2109375 C68.88017787 43.8052094 67.43835316 47.40187866 66 51 C64.35 51 62.7 51 61 51 C57.32868911 43.9365801 54.15070858 36.76083436 51.1875 29.375 C50.78080078 28.37082031 50.37410156 27.36664063 49.95507812 26.33203125 C48.96641858 23.8894606 47.98146062 21.44547003 47 19 C45.22860485 23.02058605 43.4579846 27.04151291 41.6875 31.0625 C41.18798828 32.19623047 40.68847656 33.32996094 40.17382812 34.49804688 C37.75694853 39.9880449 35.34743592 45.47992032 33 51 C31.35 51 29.7 51 28 51 C22.39420905 40.49901132 17.77627887 29.60517519 13.26464844 18.60058594 C12.77125977 17.42012695 12.27787109 16.23966797 11.76953125 15.0234375 C11.33229736 13.96044434 10.89506348 12.89745117 10.44458008 11.80224609 C7.95333154 6.96963654 5.11743177 4.70581059 0 3 C0 2.01 0 1.02 0 0 Z " fill="#00355F" transform="translate(556,122)"/>
<path d="M0 0 C0.93199219 -0.00257812 1.86398438 -0.00515625 2.82421875 -0.0078125 C4.28794922 0.00378906 4.28794922 0.00378906 5.78125 0.015625 C6.75707031 0.00789063 7.73289062 0.00015625 8.73828125 -0.0078125 C9.67027344 -0.00523438 10.60226563 -0.00265625 11.5625 0 C12.41908203 0.00225586 13.27566406 0.00451172 14.15820312 0.00683594 C16.28125 0.265625 16.28125 0.265625 18.28125 2.265625 C17.90030067 5.00846021 17.19256111 7.59309166 16.46875 10.265625 C15.92710661 13.3490572 15.92710661 13.3490572 18.09375 15.390625 C23.78381504 22.8689962 22.74908382 35.22033133 23.28125 44.265625 C22.44875732 44.24467773 21.61626465 44.22373047 20.75854492 44.20214844 C17.66678966 44.13393684 14.57541803 44.08380776 11.4831543 44.04589844 C9.48785986 44.01591219 7.49291418 43.96508714 5.49804688 43.9140625 C4.24443359 43.90117188 2.99082031 43.88828125 1.69921875 43.875 C0.54188232 43.85405273 -0.6154541 43.83310547 -1.80786133 43.81152344 C-5.24751502 44.00125948 -5.24751502 44.00125948 -7.71875 48.265625 C-4.41875 48.595625 -1.11875 48.925625 2.28125 49.265625 C2.28125 48.275625 2.28125 47.285625 2.28125 46.265625 C3.76625 45.770625 3.76625 45.770625 5.28125 45.265625 C5.61125 46.255625 5.94125 47.245625 6.28125 48.265625 C7.60125 48.265625 8.92125 48.265625 10.28125 48.265625 C9.95125 49.255625 9.62125 50.245625 9.28125 51.265625 C2.02125 51.265625 -5.23875 51.265625 -12.71875 51.265625 C-12.71875 44.22549964 -12.34587597 37.91556496 -11.40625 31.015625 C-11.28830078 30.04882812 -11.17035156 29.08203125 -11.04882812 28.0859375 C-10.38269848 23.1258337 -9.73599102 19.39203174 -6.71875 15.265625 C-5.21102685 12.82499815 -4.63951165 11.84604592 -5.03125 8.9765625 C-5.3715625 7.82027344 -5.3715625 7.82027344 -5.71875 6.640625 C-6.40625 4.2890625 -6.40625 4.2890625 -6.71875 2.265625 C-4.22817749 -0.22494751 -3.43402341 0.0090437 0 0 Z " fill="#FACB38" transform="translate(94.71875,42.734375)"/>
<path d="M0 0 C0.33 2.64 0.66 5.28 1 8 C1.65226562 7.59007812 2.30453125 7.18015625 2.9765625 6.7578125 C10.0492403 2.39737102 16.45176825 -1.34792477 25 0 C29.58524922 2.1628534 31.52193359 4.31682837 33.40664673 8.99734497 C34.446124 12.50573445 34.36783052 15.92605714 34.29296875 19.55859375 C34.28872391 20.34774673 34.28447906 21.13689972 34.28010559 21.94996643 C34.26344452 24.44617261 34.22581779 26.94154192 34.1875 29.4375 C34.17243683 31.13996222 34.15875129 32.84243721 34.14648438 34.54492188 C34.1135825 38.6969322 34.06188951 42.8483247 34 47 C36.97 47.33 39.94 47.66 43 48 C43 49.32 43 50.64 43 52 C33.76 52 24.52 52 15 52 C15 50.68 15 49.36 15 48 C16.670625 47.7215625 16.670625 47.7215625 18.375 47.4375 C19.57125 46.963125 20.7675 46.48875 22 46 C24.69216061 39.74442938 24.33204195 33.14820504 24.3125 26.4375 C24.32861328 25.32697266 24.34472656 24.21644531 24.36132812 23.07226562 C24.38344995 15.10570157 24.38344995 15.10570157 21 8 C17.4749684 6.2374842 13.73711492 7.10285477 10 8 C7.73088952 9.16730132 5.70488958 10.46095753 3.62890625 11.94140625 C2 13 2 13 0 13 C0.33 24.22 0.66 35.44 1 47 C4.465 47.495 4.465 47.495 8 48 C8 49.32 8 50.64 8 52 C-0.58 52 -9.16 52 -18 52 C-18 50.68 -18 49.36 -18 48 C-16.865625 47.566875 -15.73125 47.13375 -14.5625 46.6875 C-13.386875 46.130625 -12.21125 45.57375 -11 45 C-9.8312519 41.4937557 -9.87485733 38.3522134 -9.90234375 34.70703125 C-9.90446617 33.64798836 -9.90446617 33.64798836 -9.90663147 32.56755066 C-9.91222236 30.31582374 -9.92477312 28.06419679 -9.9375 25.8125 C-9.94251618 24.28450665 -9.94707888 22.75651173 -9.95117188 21.22851562 C-9.9621888 17.48563865 -9.97944713 13.74283627 -10 10 C-12.31 9.67 -14.62 9.34 -17 9 C-17 7.68 -17 6.36 -17 5 C-14.91999989 4.15838146 -12.83585854 3.32699237 -10.75 2.5 C-9.58984375 2.0359375 -8.4296875 1.571875 -7.234375 1.09375 C-4 0 -4 0 0 0 Z " fill="#00355F" transform="translate(268,28)"/>
<path d="M0 0 C3.125 2 3.125 2 5 4 C4.125 8.875 4.125 8.875 3 10 C-1.03264685 10.46891242 -2.63953577 10.24276163 -6.0625 7.9375 C-8.7798037 5.78673818 -8.7798037 5.78673818 -11.625 5.875 C-14.95529781 7.45250949 -16.40748346 9.78722273 -18 13 C-19.14843028 16.5773923 -19.95911412 20.20409574 -20.75 23.875 C-21.08064453 25.33679688 -21.08064453 25.33679688 -21.41796875 26.828125 C-21.9564701 29.21626143 -22.47977458 31.60781589 -23 34 C-19.7 34 -16.4 34 -13 34 C-13.33 35.65 -13.66 37.3 -14 39 C-18.95 39.495 -18.95 39.495 -24 40 C-24.1858667 41.1331665 -24.3717334 42.26633301 -24.56323242 43.43383789 C-25.26853649 47.7132897 -25.99006709 51.98988361 -26.71606445 56.26586914 C-27.02570631 58.10271401 -27.33117775 59.94026771 -27.63208008 61.77856445 C-33.54479796 97.83532156 -33.54479796 97.83532156 -47.125 108.5 C-53.37062825 112.95746082 -59.44014202 113.97473431 -67 113 C-70.1875 111 -70.1875 111 -72 109 C-71.125 104.125 -71.125 104.125 -70 103 C-64.59990496 102.37208197 -62.38860364 104.07426424 -58 107 C-54.95691709 107.75015195 -54.95691709 107.75015195 -52 107 C-44.49959373 101.64256695 -42.69729139 91.73408829 -41.20027161 83.14257812 C-41.02718979 82.08490234 -40.85410797 81.02722656 -40.67578125 79.9375 C-40.48404831 78.82439453 -40.29231537 77.71128906 -40.09477234 76.56445312 C-39.49028495 73.04464764 -38.90071836 69.52255732 -38.3125 66 C-37.71080704 62.44941107 -37.10600789 58.89938229 -36.49809265 55.34985352 C-36.12212475 53.14923793 -35.75026132 50.94791642 -35.38288879 48.74584961 C-35.21568832 47.75721924 -35.04848785 46.76858887 -34.8762207 45.75 C-34.7306221 44.87859375 -34.5850235 44.0071875 -34.43501282 43.109375 C-34 41 -34 41 -33 39 C-35.97 39 -38.94 39 -42 39 C-41.67 38.01 -41.34 37.02 -41 36 C-39.72253906 35.7834375 -38.44507813 35.566875 -37.12890625 35.34375 C-33.95583502 34.67340207 -33.95583502 34.67340207 -31.89404297 32.3203125 C-31.0982582 30.06550168 -30.49457927 27.8252512 -29.9375 25.5 C-26.88795846 14.83135467 -22.78806452 6.83519231 -13 1 C-8.67240486 -0.44253171 -4.5226114 -0.55452401 0 0 Z " fill="#00355F" transform="translate(249,88)"/>
<path d="M0 0 C7.08099258 5.19694277 10.61277466 10.97994619 12.1875 19.60546875 C13.04664171 27.76731504 10.23175721 35.22596698 5.1875 41.60546875 C-0.06001117 46.85297992 -7.36728511 49.77630312 -14.75 50.10546875 C-23.08250077 49.72492934 -31.10186241 46.72400902 -36.8125 40.60546875 C-41.80679226 33.13444299 -43.92359097 26.30534727 -42.421875 17.25 C-40.52129569 9.39183556 -36.39440756 3.55154796 -29.55859375 -0.84375 C-20.2101503 -5.23305211 -8.94789178 -5.25394304 0 0 Z M-29.125 7.66796875 C-32.92496278 14.28271877 -32.95891845 22.19205471 -31.05859375 29.5078125 C-28.29716095 36.70919607 -25.05711814 41.69540055 -17.890625 44.93359375 C-14.41764323 46.05643748 -12.26041825 45.73387836 -8.8125 44.60546875 C-3.88060532 41.45028147 -1.05506231 38.05641667 1.1875 32.60546875 C2.42110577 23.12559738 1.30742732 15.33370994 -4.2734375 7.57421875 C-6.84112955 4.39393012 -8.96852803 2.16205816 -12.8125 0.60546875 C-20.36465079 -0.12538455 -24.38769545 1.39424111 -29.125 7.66796875 Z " fill="#00355F" transform="translate(548.8125,124.39453125)"/>
<path d="M0 0 C8.58 0 17.16 0 26 0 C26 1.32 26 2.64 26 4 C24.02 4.66 22.04 5.32 20 6 C22.25411666 13.37780846 25.30216559 20.13894512 28.6875 27.0625 C29.19861328 28.11888672 29.70972656 29.17527344 30.23632812 30.26367188 C31.48603874 32.84484987 32.74067122 35.4235047 34 38 C35.66173999 34.00642731 37.30146233 30.00416315 38.9375 26 C39.40607422 24.87464844 39.87464844 23.74929687 40.35742188 22.58984375 C42.77016035 16.65346563 44.6304921 11.41528616 45 5 C42.69 4.67 40.38 4.34 38 4 C38 2.68 38 1.36 38 0 C44.93 0 51.86 0 59 0 C59 1.32 59 2.64 59 4 C58.278125 4.4125 57.55625 4.825 56.8125 5.25 C49.57297648 9.75459241 47.00361401 19.46957276 44.09375 27.05859375 C43.64656616 28.20231949 43.19938232 29.34604523 42.73864746 30.52442932 C41.31808701 34.15918409 39.9080042 37.79786461 38.5 41.4375 C37.09141646 45.07332484 35.68034893 48.70808455 34.26135254 52.33985901 C33.38135686 54.59243509 32.5072307 56.84731623 31.64001465 59.10484314 C25.47479052 74.89642806 25.47479052 74.89642806 20.5 79.125 C17.50448908 80.17342882 15.97669171 80.04586466 13 79 C11 77 11 77 10.8125 74.125 C12 71 12 71 13.9375 69.9296875 C15.54945744 69.298691 17.16279166 68.67120259 18.77734375 68.046875 C23.90011263 65.63404185 25.58338197 59.98845795 27.58203125 55.02734375 C28.67283258 49.73644759 25.73845746 44.9344151 23.5078125 40.28515625 C23.16120575 39.5517955 22.814599 38.81843475 22.45748901 38.06285095 C21.35184111 35.72690227 20.23847483 33.39472628 19.125 31.0625 C18.38361964 29.49828136 17.64272913 27.93383046 16.90234375 26.36914062 C13.17097439 18.45893523 13.17097439 18.45893523 9.26513672 10.63452148 C8 8 8 8 8 6 C5.36 5.34 2.72 4.68 0 4 C0 2.68 0 1.36 0 0 Z " fill="#00355F" transform="translate(588,29)"/>
<path d="M0 0 C3.9787931 2.07369301 6.03362191 4.27206337 7.90625 8.2734375 C8.22473388 11.05814835 8.39391159 13.63281687 8.41796875 16.41796875 C8.43591995 17.18775558 8.45387115 17.95754242 8.47236633 18.75065613 C8.52630387 21.19569514 8.56031073 23.64054082 8.59375 26.0859375 C8.62693782 27.74937576 8.66142884 29.41278857 8.69726562 31.07617188 C8.78202037 35.14178721 8.84890973 39.20734686 8.90625 43.2734375 C12.52951739 44.4811933 13.54771369 43.81654878 16.90625 42.2734375 C16.90625 46.2734375 16.90625 46.2734375 15.18359375 48.01171875 C11.26359996 50.64904345 8.83861431 52.2283231 4.03125 52.4609375 C0.90625 51.2734375 0.90625 51.2734375 -1.03125 48.7109375 C-1.381875 47.9065625 -1.7325 47.1021875 -2.09375 46.2734375 C-2.650625 46.7065625 -3.2075 47.1396875 -3.78125 47.5859375 C-9.17563695 51.52238203 -12.40214257 53.27717861 -19.09375 52.2734375 C-22.73730647 50.65407907 -25.22020605 48.82331024 -27.09375 45.2734375 C-27.49345143 41.60950772 -27.38068556 39.04457681 -26.09375 35.5859375 C-20.40901095 29.01295798 -9.31861554 26.17591808 -1.09375 24.2734375 C-1.18135589 22.21016773 -1.28954273 20.1477659 -1.40625 18.0859375 C-1.46425781 16.93738281 -1.52226562 15.78882813 -1.58203125 14.60546875 C-2.12449374 11.07325118 -2.94675628 9.10542446 -5.09375 6.2734375 C-8.176542 4.76483716 -10.02404876 4.04215074 -13.40625 4.7734375 C-15.42063637 6.21809463 -15.42063637 6.21809463 -15.34375 9.1484375 C-16.09375 12.2734375 -16.09375 12.2734375 -17.85546875 13.5546875 C-23.26383929 16.2734375 -23.26383929 16.2734375 -26.09375 16.2734375 C-25.99539328 11.4539583 -25.29833114 9.02759181 -21.90625 5.5234375 C-15.5103542 -0.23804758 -8.48542926 -2.9445706 0 0 Z M-9.03125 31.0859375 C-10.09214844 31.60800781 -11.15304687 32.13007813 -12.24609375 32.66796875 C-15.57110655 34.53239789 -15.57110655 34.53239789 -18.09375 37.2734375 C-18.09457535 40.85100436 -18.09457535 40.85100436 -17.09375 44.2734375 C-13.52895155 46.6499698 -12.29798715 46.8393925 -8.09375 46.2734375 C-4.97503307 45.20881526 -2.96611465 44.01957233 -1.09375 41.2734375 C-0.49298122 36.88197724 -0.68752885 32.67739065 -1.09375 28.2734375 C-4.14914139 28.2734375 -6.31468782 29.73259561 -9.03125 31.0859375 Z " fill="#00355F" transform="translate(394.09375,121.7265625)"/>
<path d="M0 0 C2.96410208 2.3106523 4.84930229 5.1156141 6.71875 8.33984375 C7.151875 9.04109375 7.585 9.74234375 8.03125 10.46484375 C8.71875 12.33984375 8.71875 12.33984375 8.71875 17.33984375 C-3.16125 17.33984375 -15.04125 17.33984375 -27.28125 17.33984375 C-26.37036599 29.49883346 -26.37036599 29.49883346 -19.84375 38.71484375 C-14.89947306 41.85023888 -11.19336068 42.94107534 -5.28125 42.33984375 C-0.92878186 40.71267795 2.54557527 38.75786221 5.71875 35.33984375 C6.70875 35.66984375 7.69875 35.99984375 8.71875 36.33984375 C5.95718496 42.41528683 0.16999812 46.67731882 -5.73828125 49.5234375 C-11.54347851 51.38716442 -18.00160889 51.28305313 -23.59375 48.77734375 C-29.88124332 45.09246037 -33.82368887 39.84423563 -35.80859375 32.85546875 C-37.64984858 23.05573231 -36.31790764 14.7322408 -30.99609375 6.3046875 C-23.71683268 -3.24554082 -10.49393402 -6.04261365 0 0 Z M-21.28125 3.33984375 C-24.7125833 6.86391579 -25.27866327 8.32691008 -26.28125 13.33984375 C-18.36125 13.33984375 -10.44125 13.33984375 -2.28125 13.33984375 C-4.77536707 5.60118779 -4.77536707 5.60118779 -10.28125 1.33984375 C-14.80268389 -0.39916929 -17.29152989 0.79321389 -21.28125 3.33984375 Z " fill="#00355F" transform="translate(432.28125,30.66015625)"/>
<path d="M0 0 C8.58 0 17.16 0 26 0 C26 1.32 26 2.64 26 4 C23.69 4.66 21.38 5.32 19 6 C21.1260286 12.85335301 23.79601137 19.37515819 26.6875 25.9375 C27.50721305 27.79932886 28.32378856 29.66254331 29.13671875 31.52734375 C29.49467529 32.33937256 29.85263184 33.15140137 30.22143555 33.98803711 C31 36 31 36 31 38 C31.66 38 32.32 38 33 38 C33.16725586 37.45762695 33.33451172 36.91525391 33.50683594 36.35644531 C35.61260749 29.76212982 38.37309189 23.61951603 41.390625 17.3984375 C43.53120337 12.87490287 43.53120337 12.87490287 43.734375 7.953125 C43.49203125 7.30859375 43.2496875 6.6640625 43 6 C40.69 5.34 38.38 4.68 36 4 C36 2.68 36 1.36 36 0 C43.59 0 51.18 0 59 0 C59 1.32 59 2.64 59 4 C58.0925 4.350625 57.185 4.70125 56.25 5.0625 C50.07787929 8.7420335 47.71462436 16.60306417 44.890625 22.99609375 C44.51895203 23.82963882 44.14727905 24.6631839 43.76434326 25.52198792 C42.58945967 28.15897877 41.41965476 30.79818633 40.25 33.4375 C39.44955458 35.23647759 38.64877661 37.03530725 37.84765625 38.83398438 C35.89458831 43.22095524 33.94606882 47.6099201 32 52 C30.35 52 28.7 52 27 52 C26.76862839 51.47017517 26.53725677 50.94035034 26.2988739 50.39447021 C23.88788572 44.87626951 21.4696198 39.36130064 19.04711914 33.84814453 C18.14420865 31.79069542 17.24315168 29.73243185 16.34399414 27.67333984 C15.05061477 24.71235095 13.75057948 21.75436319 12.44921875 18.796875 C12.0491008 17.87694763 11.64898285 16.95702026 11.23674011 16.00921631 C10.85657242 15.1486261 10.47640472 14.28803589 10.0847168 13.40136719 C9.75384567 12.64635925 9.42297455 11.89135132 9.08207703 11.11346436 C7.91499621 8.8339744 6.67923793 6.93490708 5 5 C2.40144267 4.1957792 2.40144267 4.1957792 0 4 C0 2.68 0 1.36 0 0 Z " fill="#00355F" transform="translate(339,29)"/>
<path d="M0 0 C0.00879936 1.43700005 0.00879936 1.43700005 0.01777649 2.9030304 C0.07494426 11.92325788 0.14767442 20.9432429 0.23571491 29.96322346 C0.28047741 34.60070884 0.3197204 39.23810517 0.34643555 43.87573242 C0.3724101 48.34979039 0.41277054 52.82350675 0.46318626 57.29735374 C0.47989469 59.00576726 0.49138415 60.71423991 0.49761391 62.42272377 C0.50721208 64.81253655 0.53521826 67.20146752 0.56762695 69.59106445 C0.56547432 70.65489601 0.56547432 70.65489601 0.5632782 71.74021912 C0.61838947 74.60613809 0.67576245 76.54191302 2.35905457 78.92008972 C4.50314127 80.33111852 6.47793902 80.65918095 9 81 C9 81.99 9 82.98 9 84 C-0.57 84 -10.14 84 -20 84 C-20 83.01 -20 82.02 -20 81 C-19.36191406 80.82984375 -18.72382813 80.6596875 -18.06640625 80.484375 C-17.24011719 80.24203125 -16.41382813 79.9996875 -15.5625 79.75 C-14.73878906 79.51796875 -13.91507812 79.2859375 -13.06640625 79.046875 C-10.86687869 78.2270653 -10.86687869 78.2270653 -10.37893677 76.31668091 C-9.9142087 73.47550333 -9.87271452 70.76647562 -9.87060547 67.88623047 C-9.86745331 66.65170135 -9.86430115 65.41717224 -9.86105347 64.14523315 C-9.86284303 62.80255091 -9.86489392 61.45986898 -9.8671875 60.1171875 C-9.8665137 58.73764021 -9.86554304 57.35809303 -9.86428833 55.97854614 C-9.86281592 53.09196844 -9.86495189 50.20542175 -9.86962891 47.31884766 C-9.87533664 43.615341 -9.87203772 39.91190666 -9.86605644 36.20840263 C-9.86244762 33.36202446 -9.86359071 30.51566351 -9.86618423 27.66928482 C-9.86685206 26.30330522 -9.86603011 24.93732407 -9.86370468 23.57134628 C-9.8611718 21.66589131 -9.86571525 19.76043085 -9.87060547 17.85498047 C-9.87140106 16.77006317 -9.87219666 15.68514587 -9.87301636 14.56735229 C-9.82681743 12.01096316 -9.82681743 12.01096316 -11 10 C-12.88764903 9.31527335 -12.88764903 9.31527335 -15.0625 8.875 C-16.16271484 8.62363281 -16.16271484 8.62363281 -17.28515625 8.3671875 C-17.85105469 8.24601562 -18.41695313 8.12484375 -19 8 C-18.890625 6.140625 -18.890625 6.140625 -18 4 C-15.234375 2.734375 -15.234375 2.734375 -11.75 1.75 C-10.04070312 1.24726562 -10.04070312 1.24726562 -8.296875 0.734375 C-5.36104591 0.08042255 -2.97945624 -0.05961449 0 0 Z " fill="#00355F" transform="translate(354,88)"/>
<path d="M0 0 C4.23253002 3.03638023 6.83060939 6.92664384 8 12 C9.06752378 21.84204852 7.92087056 30.61554319 2.01171875 38.73046875 C-3.68829166 45.39524776 -10.21518185 51.13088975 -19 53 C-23.68469008 53 -25.39245195 52.58054592 -28.8125 49.3125 C-33.66191016 41.96910748 -33.77148531 34.57313048 -33 26 C-32.1237569 22.64936589 -30.82044414 19.93546617 -29 17 C-28.5875 16.31421875 -28.175 15.6284375 -27.75 14.921875 C-21.72592445 5.95421708 -11.1848241 -1.92082847 0 0 Z M-13.5625 5.875 C-20.04756182 11.52864364 -23.46929008 19.73173319 -24.3203125 28.1796875 C-24.52482557 34.08329814 -24.43765079 39.42112712 -21.33203125 44.58984375 C-19.88687916 46.32156693 -19.88687916 46.32156693 -16.625 47.3125 C-12.87362093 46.98910525 -11.0647147 46.26796535 -8.34765625 43.65234375 C-2.3504661 36.29926713 -0.50094543 27.24196838 -0.6875 17.94921875 C-1.1397597 13.68101779 -2.2103316 10.3046841 -5 7 C-8.38102575 5.05770861 -9.86370138 4.61199559 -13.5625 5.875 Z " fill="#00355F" transform="translate(196,121)"/>
<path d="M0 0 C0.33 2.97 0.66 5.94 1 9 C1.78375 7.865625 2.5675 6.73125 3.375 5.5625 C5.75 2.125 5.75 2.125 8 1 C13.6285376 0.55854607 17.05504256 1.57798003 22 4 C21.125 9.75 21.125 9.75 20 12 C18.783125 11.855625 17.56625 11.71125 16.3125 11.5625 C15.58160156 11.47742187 14.85070312 11.39234375 14.09765625 11.3046875 C12 11 12 11 9.25 10.1875 C6.82855909 9.72615388 6.82855909 9.72615388 4.8125 11.75 C1.30425236 16.10506604 0.75776632 18.29530926 0.8046875 23.85546875 C0.80893234 24.84792351 0.80893234 24.84792351 0.81326294 25.86042786 C0.82444082 27.96963737 0.84954019 30.07841925 0.875 32.1875 C0.88503293 33.61913448 0.89415824 35.05077564 0.90234375 36.48242188 C0.92437205 39.98841977 0.95888515 43.49416813 1 47 C4.96 47.33 8.92 47.66 13 48 C13 49.32 13 50.64 13 52 C2.77 52 -7.46 52 -18 52 C-18 50.68 -18 49.36 -18 48 C-16.576875 47.6596875 -16.576875 47.6596875 -15.125 47.3125 C-11.89583986 46.33832383 -11.89583986 46.33832383 -10.83056641 43.85864258 C-9.84728334 40.47437995 -9.6759058 37.47297728 -9.5859375 33.94921875 C-9.56657135 33.29041214 -9.5472052 32.63160553 -9.5272522 31.95283508 C-9.46784059 29.86451857 -9.42122709 27.77614576 -9.375 25.6875 C-9.33678468 24.26495095 -9.29773091 22.84242416 -9.2578125 21.41992188 C-9.16217204 17.94681926 -9.07800027 14.47354868 -9 11 C-10.16595703 10.78537109 -10.16595703 10.78537109 -11.35546875 10.56640625 C-13.87786006 10.02615996 -15.75804088 9.24553285 -18 8 C-18 7.01 -18 6.02 -18 5 C-15.94175571 4.15621025 -13.87820214 3.32536378 -11.8125 2.5 C-10.66394531 2.0359375 -9.51539063 1.571875 -8.33203125 1.09375 C-5.28009923 0.09194348 -3.16884928 -0.23870804 0 0 Z " fill="#00355F" transform="translate(464,28)"/>
<path d="M0 0 C1.65 0 3.3 0 5 0 C5 1.32 5 2.64 5 4 C5.66 4 6.32 4 7 4 C7 6.31 7 8.62 7 11 C7.66 11 8.32 11 9 11 C9 14.96 9 18.92 9 23 C8.34 23 7.68 23 7 23 C7 23.66 7 24.32 7 25 C7.99 25.33 8.98 25.66 10 26 C10.042721 27.66611905 10.04063832 29.33382885 10 31 C8.03177114 32.96822886 4.65191291 32.66248381 2 33 C2.81082031 33.35964844 3.62164062 33.71929687 4.45703125 34.08984375 C7 36 7 36 7.63671875 39.06640625 C7.65347656 40.22011719 7.67023438 41.37382813 7.6875 42.5625 C7.5012113 47.32484688 7.5012113 47.32484688 10 51 C9.9375 53.5 9.9375 53.5 9 56 C6.4375 57.3125 6.4375 57.3125 4 58 C4.99 58.66 5.98 59.32 7 60 C7.29296875 63.2578125 7.29296875 63.2578125 7.1875 67.125 C7.16042969 68.40632813 7.13335937 69.68765625 7.10546875 71.0078125 C7.07066406 71.99523437 7.03585938 72.98265625 7 74 C7.99 74.33 8.98 74.66 10 75 C9.125 79.875 9.125 79.875 8 81 C6.16884117 81.09851171 4.33380067 81.12972629 2.5 81.125 C1.4996875 81.12757812 0.499375 81.13015625 -0.53125 81.1328125 C-3 81 -3 81 -4 80 C-4.1875 77.5625 -4.1875 77.5625 -4 75 C-3.01 74.01 -3.01 74.01 -2 73 C-1.85492305 70.25514407 -1.81347577 67.61519457 -1.875 64.875 C-1.88402344 64.12089844 -1.89304688 63.36679688 -1.90234375 62.58984375 C-1.9259313 60.72642746 -1.96180281 58.86317407 -2 57 C-2.66 56.67 -3.32 56.34 -4 56 C-4 54.02 -4 52.04 -4 50 C-2.515 49.505 -2.515 49.505 -1 49 C-1 43.39 -1 37.78 -1 32 C-1.99 31.67 -2.98 31.34 -4 31 C-4.08226668 27.95613276 -3.97608217 25.92824652 -3 23 C-2.931009 20.93854893 -2.91532273 18.87498599 -2.9375 16.8125 C-2.94652344 15.72582031 -2.95554688 14.63914062 -2.96484375 13.51953125 C-2.97644531 12.68808594 -2.98804688 11.85664062 -3 11 C-2.34 11 -1.68 11 -1 11 C-1.020625 9.9275 -1.04125 8.855 -1.0625 7.75 C-1.0142016 4.85209576 -0.86844115 2.71387859 0 0 Z " fill="#FEFEFE" transform="translate(62,42)"/>
<path d="M0 0 C0.99 0 1.98 0 3 0 C3 3.96 3 7.92 3 12 C8.28 12 13.56 12 19 12 C18.34 14.31 17.68 16.62 17 19 C12.38 19 7.76 19 3 19 C3.07436113 23.00268027 3.15750471 27.00375265 3.26245117 31.00561523 C3.29550934 32.36422543 3.32359961 33.72296666 3.34643555 35.08178711 C3.32092233 45.50346754 3.32092233 45.50346754 7 55 C9.83333333 56.5 9.83333333 56.5 13 56 C15.8971941 53.68726558 15.8971941 53.68726558 18 51 C19.485 51.495 19.485 51.495 21 52 C20.58424938 56.85042388 18.58340022 58.84319505 15 62 C10.94419469 64.70387021 7.76057728 64.64288138 3 64 C-1.63823282 61.85266999 -3.50373546 59.68419713 -5.40444946 54.97579956 C-6.40932504 51.6420225 -6.36831989 48.32229428 -6.29296875 44.87890625 C-6.28660149 43.76176491 -6.28660149 43.76176491 -6.28010559 42.62205505 C-6.26345724 40.26848527 -6.22583375 37.91580621 -6.1875 35.5625 C-6.17243515 33.95639267 -6.15874991 32.35027177 -6.14648438 30.74414062 C-6.11359952 26.82908953 -6.06191626 22.91469521 -6 19 C-7.98 19 -9.96 19 -12 19 C-11.875 17.3125 -11.875 17.3125 -11 15 C-9.54610159 13.87653304 -8.09165648 12.75375629 -6.6328125 11.63671875 C-3.42572541 8.4219592 -1.80453634 4.11210715 0 0 Z " fill="#00355F" transform="translate(568,17)"/>
<path d="M0 0 C1.14210938 -0.01417969 2.28421875 -0.02835937 3.4609375 -0.04296875 C6.625 0.1875 6.625 0.1875 10.625 2.1875 C10.625 6.1475 10.625 10.1075 10.625 14.1875 C9.635 14.1875 8.645 14.1875 7.625 14.1875 C7.191875 13.259375 6.75875 12.33125 6.3125 11.375 C4.52649839 7.73783492 4.52649839 7.73783492 1.625 5.1875 C-1.875 4.52083333 -1.875 4.52083333 -5.375 5.1875 C-7.61800635 7.25913629 -7.61800635 7.25913629 -8.375 10.1875 C-7.20666713 14.78688635 -5.0444157 16.52357686 -1.1875 19.125 C5.52884615 23.80528846 5.52884615 23.80528846 8.6875 26.4375 C9.21472656 26.87578125 9.74195313 27.3140625 10.28515625 27.765625 C14.07560185 31.7881387 14.1695956 36.11732085 14.0703125 41.421875 C13.34718564 45.91287342 11.1808704 48.46974093 7.625 51.1875 C2.32738025 53.77995222 -2.82998307 53.63662064 -8.5625 52.625 C-11.59379472 51.96681912 -11.59379472 51.96681912 -15.375 53.1875 C-15.87 45.7625 -15.87 45.7625 -16.375 38.1875 C-15.385 38.1875 -14.395 38.1875 -13.375 38.1875 C-9.375 44.9375 -9.375 44.9375 -9.375 47.1875 C-6.69856043 48.07964652 -5.12115622 48.32290211 -2.375 48.3125 C-1.3540625 48.31636719 -1.3540625 48.31636719 -0.3125 48.3203125 C1.84374781 48.25381126 1.84374781 48.25381126 4.625 47.1875 C5.4499938 43.96252422 5.89936151 41.90083992 4.6875 38.75 C0.61963568 33.69598675 -4.44014856 29.82858803 -9.6875 26.0625 C-12.80366079 23.73609312 -14.95448282 21.91635761 -16.375 18.1875 C-16.94287947 14.21234371 -16.78714109 11.14193201 -15.1875 7.4375 C-10.66433578 1.82253752 -7.04275817 0.03956606 0 0 Z " fill="#00355F" transform="translate(431.375,120.8125)"/>
<path d="M0 0 C0.84304688 -0.01417969 1.68609375 -0.02835938 2.5546875 -0.04296875 C5.125 0.1875 5.125 0.1875 10.125 2.1875 C10.125 6.1475 10.125 10.1075 10.125 14.1875 C9.135 14.1875 8.145 14.1875 7.125 14.1875 C6.7125 13.07375 6.3 11.96 5.875 10.8125 C4.85771304 8.47510577 4.30161106 7.33366088 2.3125 5.6875 C-0.68905957 5.00142924 -2.91445225 5.4151832 -5.875 6.1875 C-8.24018182 8.09974313 -8.24018182 8.09974313 -8 11.4375 C-6.40409133 16.75719557 -3.36339428 18.22531014 1.125 21.1875 C2.74130045 22.37955411 4.3456434 23.58799492 5.9375 24.8125 C7.02998047 25.63621094 7.02998047 25.63621094 8.14453125 26.4765625 C12.20254926 29.98230587 13.96732697 33.09833235 14.375 38.5 C14.01398229 43.8250112 12.53968242 46.87891877 8.625 50.5 C5.29445525 52.7481177 2.82074168 53.31300171 -1.10546875 53.28515625 C-1.90791016 53.28193359 -2.71035156 53.27871094 -3.53710938 53.27539062 C-4.37048828 53.26701172 -5.20386719 53.25863281 -6.0625 53.25 C-7.3299707 53.24323242 -7.3299707 53.24323242 -8.62304688 53.23632812 C-10.70706155 53.22455403 -12.79103977 53.2066189 -14.875 53.1875 C-15.2101658 51.06278825 -15.54307829 48.93772095 -15.875 46.8125 C-16.1534375 45.03746094 -16.1534375 45.03746094 -16.4375 43.2265625 C-16.875 40.1875 -16.875 40.1875 -16.875 38.1875 C-15.555 38.1875 -14.235 38.1875 -12.875 38.1875 C-12.441875 39.280625 -12.00875 40.37375 -11.5625 41.5 C-9.90605411 45.37014985 -9.90605411 45.37014985 -6.875 48.1875 C-3.34986247 49.26036794 -1.52932539 49.43468959 1.9375 48.125 C4.34477865 46.31112206 4.34477865 46.31112206 5.125 43.3125 C5.125 39.44703551 4.42482343 38.28587323 2.125 35.1875 C-0.25657612 33.15939381 -2.7978833 31.39462013 -5.375 29.625 C-15.15773716 22.85161913 -15.15773716 22.85161913 -16.75 16.9375 C-16.90146484 12.39355478 -16.24009024 9.08693193 -13.875 5.1875 C-9.39183951 1.54493211 -5.72409107 0.04349613 0 0 Z " fill="#00355F" transform="translate(506.875,27.8125)"/>
<path d="M0 0 C0.66 0 1.32 0 2 0 C1.21103076 6.70623851 -2.74153627 11.38237832 -7.8046875 15.546875 C-19.2490872 23.1221716 -32.44905735 24.3114166 -45.765625 22.65625 C-47.89486353 22.2095566 -49.92899466 21.66389082 -52 21 C-52.66 20.80535156 -53.32 20.61070312 -54 20.41015625 C-62.24262283 17.68944676 -68.80073813 13.38055815 -73.22265625 5.83203125 C-74 4 -74 4 -74 1 C-69.68607774 1.4793247 -67.83430453 2.7457985 -65 6 C-64.34 5.34 -63.68 4.68 -63 4 C-62.67 4.99 -62.34 5.98 -62 7 C-61.09507813 6.94779297 -61.09507813 6.94779297 -60.171875 6.89453125 C-58.97304688 6.85392578 -58.97304688 6.85392578 -57.75 6.8125 C-56.96109375 6.77769531 -56.1721875 6.74289063 -55.359375 6.70703125 C-53 7 -53 7 -51.0625 8.5 C-48.33415704 10.48424943 -46.58056047 10.30644859 -43.25 10.1875 C-42.26515625 10.16042969 -41.2803125 10.13335937 -40.265625 10.10546875 C-39.51796875 10.07066406 -38.7703125 10.03585938 -38 10 C-39.60875 9.319375 -39.60875 9.319375 -41.25 8.625 C-41.88679688 8.34785156 -42.52359375 8.07070312 -43.1796875 7.78515625 C-44.56780438 7.18641914 -45.96884813 6.61755995 -47.375 6.0625 C-49 5 -49 5 -49.75 2.875 C-49.8325 2.25625 -49.915 1.6375 -50 1 C-49.34 1 -48.68 1 -48 1 C-47.67 1.66 -47.34 2.32 -47 3 C-44.25936485 4.10250307 -41.47232774 4.9872494 -38.6640625 5.90234375 C-36.06299208 6.97404579 -34.69885282 7.78686861 -33 10 C-33 10.66 -33 11.32 -33 12 C-33.66 12.33 -34.32 12.66 -35 13 C-24.01047925 13.43316359 -12.80101003 13.51305735 -4 6 C-2.63178949 4.02369593 -1.29048808 2.02790984 0 0 Z " fill="#1A9CD7" transform="translate(100,127)"/>
<path d="M0 0 C0.58007812 0.20496094 1.16015625 0.40992187 1.7578125 0.62109375 C8.24376365 2.90135348 8.24376365 2.90135348 15 4 C15.89525391 3.51466797 15.89525391 3.51466797 16.80859375 3.01953125 C19.58997033 1.72552182 21.69777834 1.80232806 24.75 1.875 C26.22726563 1.90207031 26.22726563 1.90207031 27.734375 1.9296875 C28.85585937 1.96449219 28.85585937 1.96449219 30 2 C30 2.66 30 3.32 30 4 C28.2421875 5.33203125 28.2421875 5.33203125 25.875 6.8125 C21.98439752 9.31404062 18.48371461 11.96291547 15 15 C13.68 14.34 12.36 13.68 11 13 C10.67 13.33 10.34 13.66 10 14 C10.99 14.66 11.98 15.32 13 16 C12.65327061 24.32150535 8.09277693 29.22266079 2.1875 34.75 C-1.93350402 38.21990126 -7.41892968 42 -13 42 C-13 42.66 -13 43.32 -13 44 C-12.01 44.33 -11.02 44.66 -10 45 C-10 45.66 -10 46.32 -10 47 C-27.41816189 48.29824809 -44.45989348 44.30137648 -58.64453125 34.09765625 C-61.13908248 31.87614048 -62.55557652 29.83821117 -64.1875 26.9375 C-64.92033203 25.65166016 -64.92033203 25.65166016 -65.66796875 24.33984375 C-66.32732422 23.18162109 -66.32732422 23.18162109 -67 22 C-67.66 21.01 -68.32 20.02 -69 19 C-69 18.01 -69 17.02 -69 16 C-67.68 16 -66.36 16 -65 16 C-65.99 14.68 -66.98 13.36 -68 12 C-67.34 12 -66.68 12 -66 12 C-65.67 10.68 -65.34 9.36 -65 8 C-63.0085944 7.61866701 -61.00720923 7.28674418 -59 7 C-58 8 -58 8 -57.9375 11.5625 C-57.958125 12.696875 -57.97875 13.83125 -58 15 C-58.99 15.33 -59.98 15.66 -61 16 C-61 16.66 -61 17.32 -61 18 C-62.32 18.33 -63.64 18.66 -65 19 C-60.49624236 29.13974485 -54.08775997 34.16489601 -43.875 38.25 C-30.04195663 41.85862001 -15.05118665 41.37930077 -2.3359375 34.57421875 C3.15595244 31.11271808 7.53927876 27.15180309 10 21 C10 20.01 10 19.02 10 18 C8.68 18.33 7.36 18.66 6 19 C4.98855432 16.77542155 3.99079735 14.54625709 3 12.3125 C2.71382813 11.68666016 2.42765625 11.06082031 2.1328125 10.41601562 C0.54255472 6.80007233 -0.36326652 3.95809151 0 0 Z " fill="#8CCFEE" transform="translate(91,109)"/>
<path d="M0 0 C0.00879936 0.83565239 0.00879936 0.83565239 0.01777649 1.68818665 C0.08164414 7.47955461 0.16604596 13.27036344 0.26245117 19.0612793 C0.29573322 21.22331375 0.32375485 23.38543577 0.34643555 25.54760742 C0.37992108 28.65321218 0.432234 31.75801198 0.48828125 34.86328125 C0.49467117 35.83211746 0.5010611 36.80095367 0.50764465 37.79914856 C0.53733589 39.15020943 0.53733589 39.15020943 0.56762695 40.52856445 C0.57873001 41.32132278 0.58983307 42.11408112 0.60127258 42.93086243 C1.10075055 45.52283025 1.92895279 46.40532389 4 48 C6.60611077 48.72197162 6.60611077 48.72197162 9 49 C9 50.32 9 51.64 9 53 C-0.24 53 -9.48 53 -19 53 C-19 51.68 -19 50.36 -19 49 C-17.88625 48.731875 -16.7725 48.46375 -15.625 48.1875 C-11.78159049 47.34190981 -11.78159049 47.34190981 -10 44 C-9.82887998 41.52943177 -9.76746876 39.17496079 -9.8046875 36.70703125 C-9.80893234 35.64798836 -9.80893234 35.64798836 -9.81326294 34.56755066 C-9.82444536 32.31569367 -9.8495458 30.06423648 -9.875 27.8125 C-9.88503233 26.28451096 -9.89415774 24.75651567 -9.90234375 23.22851562 C-9.92437828 19.48552337 -9.95889433 15.74282944 -10 12 C-12.97 11.01 -15.94 10.02 -19 9 C-19 8.01 -19 7.02 -19 6 C-16.39802798 4.99394407 -13.79370638 3.99497475 -11.1875 3 C-10.08051758 2.57074219 -10.08051758 2.57074219 -8.95117188 2.1328125 C-8.23896484 1.86210937 -7.52675781 1.59140625 -6.79296875 1.3125 C-6.1383667 1.06113281 -5.48376465 0.80976563 -4.80932617 0.55078125 C-3 0 -3 0 0 0 Z " fill="#00355F" transform="translate(333,27)"/>
<path d="M0 0 C0.01458252 1.27641357 0.02916504 2.55282715 0.04418945 3.86791992 C0.1022354 8.61120379 0.17946828 13.35401607 0.26245117 18.09692383 C0.29567083 20.14827816 0.32371197 22.19972325 0.34643555 24.2512207 C0.3800357 27.20302949 0.43235476 30.15400886 0.48828125 33.10546875 C0.49467117 34.02023483 0.5010611 34.93500092 0.50764465 35.87748718 C0.61783102 40.66763702 0.76578253 44.17984908 4 48 C6.59122743 48.88658466 6.59122743 48.88658466 9 49 C9 50.32 9 51.64 9 53 C-0.24 53 -9.48 53 -19 53 C-19 51.68 -19 50.36 -19 49 C-16.03 48.34 -13.06 47.68 -10 47 C-10 35.45 -10 23.9 -10 12 C-12.97 11.01 -15.94 10.02 -19 9 C-19 8.01 -19 7.02 -19 6 C-16.39802798 4.99394407 -13.79370638 3.99497475 -11.1875 3 C-10.08051758 2.57074219 -10.08051758 2.57074219 -8.95117188 2.1328125 C-8.23896484 1.86210937 -7.52675781 1.59140625 -6.79296875 1.3125 C-6.1383667 1.06113281 -5.48376465 0.80976563 -4.80932617 0.55078125 C-3 0 -3 0 0 0 Z " fill="#00355F" transform="translate(545,27)"/>
<path d="M0 0 C0.50604924 2.39469729 1.00499517 4.79051717 1.5 7.1875 C1.64308594 7.86103516 1.78617188 8.53457031 1.93359375 9.22851562 C2.68069842 12.87509793 3.17352282 16.27648957 3 20 C1.95199219 19.98839844 0.90398437 19.97679688 -0.17578125 19.96484375 C-1.55468572 19.95546345 -2.93359211 19.9463635 -4.3125 19.9375 C-5.00279297 19.92912109 -5.69308594 19.92074219 -6.40429688 19.91210938 C-9.5483025 19.89692094 -11.99420019 19.99806673 -15 21 C-15.33 17.37 -15.66 13.74 -16 10 C-16.33 13.3 -16.66 16.6 -17 20 C-22.28 20 -27.56 20 -33 20 C-32.87625 17.6075 -32.7525 15.215 -32.625 12.75 C-32.59100098 12.00331055 -32.55700195 11.25662109 -32.52197266 10.48730469 C-32.30738741 6.87722344 -31.95244716 4.07946951 -30 1 C-24.66666667 1 -19.33333333 1 -14 1 C-11.97826176 0.84469501 -9.95747922 0.6767175 -7.9375 0.5 C-2.20833333 0 -2.20833333 0 0 0 Z " fill="#F8FAFB" transform="translate(80,9)"/>
<path d="M0 0 C1.65 0 3.3 0 5 0 C5 1.32 5 2.64 5 4 C5.66 4 6.32 4 7 4 C7 6.31 7 8.62 7 11 C7.66 11 8.32 11 9 11 C9 14.96 9 18.92 9 23 C8.34 23 7.68 23 7 23 C7 23.66 7 24.32 7 25 C7.99 25.33 8.98 25.66 10 26 C10.042721 27.66611905 10.04063832 29.33382885 10 31 C9 32 9 32 6.3125 32.1328125 C5.219375 32.13023438 4.12625 32.12765625 3 32.125 C1.906875 32.12757812 0.81375 32.13015625 -0.3125 32.1328125 C-3 32 -3 32 -4 31 C-4.1613058 27.93518979 -3.98150241 25.94450722 -3 23 C-2.931009 20.93854893 -2.91532273 18.87498599 -2.9375 16.8125 C-2.94652344 15.72582031 -2.95554688 14.63914062 -2.96484375 13.51953125 C-2.97644531 12.68808594 -2.98804688 11.85664062 -3 11 C-2.34 11 -1.68 11 -1 11 C-1.020625 9.9275 -1.04125 8.855 -1.0625 7.75 C-1.0142016 4.85209576 -0.86844115 2.71387859 0 0 Z " fill="#FBCA38" transform="translate(62,42)"/>
<path d="M0 0 C0.99 0.33 1.98 0.66 3 1 C3 1.66 3 2.32 3 3 C4.65 2.34 6.3 1.68 8 1 C8 2.65 8 4.3 8 6 C9.32 6 10.64 6 12 6 C11.67 7.98 11.34 9.96 11 12 C12.65 12 14.3 12 16 12 C14.125 16.875 14.125 16.875 13 18 C14.32 18.66 15.64 19.32 17 20 C15.68 21.65 14.36 23.3 13 25 C13.99 25.99 14.98 26.98 16 28 C14.68 28.99 13.36 29.98 12 31 C12.66 32.32 13.32 33.64 14 35 C12.56260487 35.02712066 11.12506137 35.04645067 9.6875 35.0625 C8.88699219 35.07410156 8.08648437 35.08570313 7.26171875 35.09765625 C5 35 5 35 2 34 C2 33.34 2 32.68 2 32 C2.99 31.34 3.98 30.68 5 30 C5 28.68 5 27.36 5 26 C5.66 25.01 6.32 24.02 7 23 C5.68 22.67 4.36 22.34 3 22 C3.99 20.35 4.98 18.7 6 17 C5.01 16.67 4.02 16.34 3 16 C3.66 14.35 4.32 12.7 5 11 C3.68 11.33 2.36 11.66 1 12 C1 10.02 1 8.04 1 6 C0.34 6 -0.32 6 -1 6 C-0.67 4.02 -0.34 2.04 0 0 Z " fill="#099B4B" transform="translate(29,51)"/>
<path d="M0 0 C0.66 0.33 1.32 0.66 2 1 C-2.62442519 7.97898599 -6.80599588 11.99296654 -14.9375 14.25 C-21.83012708 15.61891897 -29.00899455 15.15440257 -36 15 C-34.68 14.34 -33.36 13.68 -32 13 C-35.75780028 8.49063966 -39.34358841 6.84667015 -44.890625 4.9921875 C-45.58671875 4.66476563 -46.2828125 4.33734375 -47 4 C-47.33 3.01 -47.66 2.02 -48 1 C-42.65525224 1.35631652 -38.17263268 2.18127073 -33.125 4 C-24.66116225 6.9467491 -15.57379602 8.50096671 -7 5 C-5.37877472 3.54036437 -5.37877472 3.54036437 -4 2 C-1.9375 0.75 -1.9375 0.75 0 0 Z " fill="#F7FBFD" transform="translate(99,126)"/>
<path d="M0 0 C0.58007812 0.20496094 1.16015625 0.40992187 1.7578125 0.62109375 C8.24376365 2.90135348 8.24376365 2.90135348 15 4 C15.59683594 3.67644531 16.19367188 3.35289063 16.80859375 3.01953125 C19.58997033 1.72552182 21.69777834 1.80232806 24.75 1.875 C25.73484375 1.89304687 26.7196875 1.91109375 27.734375 1.9296875 C28.85585937 1.96449219 28.85585937 1.96449219 30 2 C30 2.66 30 3.32 30 4 C28.2421875 5.33203125 28.2421875 5.33203125 25.875 6.8125 C21.98439752 9.31404062 18.48371461 11.96291547 15 15 C13.68 14.34 12.36 13.68 11 13 C10.67 13.33 10.34 13.66 10 14 C10.99 14.66 11.98 15.32 13 16 C12.67 17.65 12.34 19.3 12 21 C11.34 20.01 10.68 19.02 10 18 C8.68 18.33 7.36 18.66 6 19 C4.98855432 16.77542155 3.99079735 14.54625709 3 12.3125 C2.71382813 11.68666016 2.42765625 11.06082031 2.1328125 10.41601562 C0.54255472 6.80007233 -0.36326652 3.95809151 0 0 Z " fill="#95D6F2" transform="translate(91,109)"/>
<path d="M0 0 C3.24208567 0.35049575 4.61527704 0.56221181 6.8125 3.0625 C7.204375 3.701875 7.59625 4.34125 8 5 C7.01 5.33 6.02 5.66 5 6 C4.30400689 8.00992204 4.30400689 8.00992204 4 10.375 C3.45141098 13.88368395 2.91344392 15.828924 0 18 C-0.99 18 -1.98 18 -3 18 C-2.67 19.32 -2.34 20.64 -2 22 C-5.875 20.25 -5.875 20.25 -7 18 C-10.4707369 18 -13.5359466 19.86217462 -16.6875 21.22265625 C-17.450625 21.47917969 -18.21375 21.73570313 -19 22 C-19.66 21.67 -20.32 21.34 -21 21 C-20.55269531 20.56429687 -20.10539062 20.12859375 -19.64453125 19.6796875 C-16.74975205 16.82811396 -13.94393813 14.01517094 -11.4375 10.8125 C-8.87450259 7.8551953 -6.25983122 6.12597688 -3 4 C-1.16699091 1.89424357 -1.16699091 1.89424357 0 0 Z " fill="#D69A38" transform="translate(31,21)"/>
<path d="M0 0 C3.96 0 7.92 0 12 0 C12.32949812 6.0407989 12.02879491 11.61169444 9 17 C4.98860761 19.22855133 1.49930808 19.0439263 -3 19 C-2.88573491 16.58239124 -2.75900339 14.16652782 -2.625 11.75 C-2.5940625 11.06808594 -2.563125 10.38617188 -2.53125 9.68359375 C-2.30216068 5.75089375 -1.80552897 3.61105794 0 0 Z " fill="#F9FBFC" transform="translate(50,10)"/>
<path d="M0 0 C1.51400391 0.01740234 1.51400391 0.01740234 3.05859375 0.03515625 C4.07050781 0.04417969 5.08242187 0.05320313 6.125 0.0625 C7.29869141 0.07990234 7.29869141 0.07990234 8.49609375 0.09765625 C7.56796875 0.49984375 7.56796875 0.49984375 6.62109375 0.91015625 C4.19657045 2.05322473 4.19657045 2.05322473 2.49609375 5.09765625 C2.12970785 7.51479104 2.12970785 7.51479104 2.08203125 10.203125 C2.04335937 11.18603516 2.0046875 12.16894531 1.96484375 13.18164062 C1.9184375 14.71788086 1.9184375 14.71788086 1.87109375 16.28515625 C1.83242187 17.32091797 1.79375 18.35667969 1.75390625 19.42382812 C1.65961079 21.98159247 1.57401173 24.53934912 1.49609375 27.09765625 C-0.81390625 27.09765625 -3.12390625 27.09765625 -5.50390625 27.09765625 C-5.55823135 24.07657723 -5.59773552 21.05649097 -5.62890625 18.03515625 C-5.64566406 17.18759766 -5.66242188 16.34003906 -5.6796875 15.46679688 C-5.71983183 10.26810552 -5.26297339 6.00349904 -3.50390625 1.09765625 C-2.50390625 0.09765625 -2.50390625 0.09765625 0 0 Z " fill="#E3A136" transform="translate(95.50390625,56.90234375)"/>
<path d="M0 0 C2.64 0.33 5.28 0.66 8 1 C8 1.66 8 2.32 8 3 C8.99 3.33 9.98 3.66 11 4 C11.33 6.64 11.66 9.28 12 12 C9.15161879 13.4241906 6.67212092 13.16995508 3.5 13.1875 C2.3346875 13.20167969 1.169375 13.21585938 -0.03125 13.23046875 C-3 13 -3 13 -5 11 C-4.01 8.36 -3.02 5.72 -2 3 C-1.34 3 -0.68 3 0 3 C0 2.01 0 1.02 0 0 Z " fill="#EEC239" transform="translate(61,156)"/>
<path d="M0 0 C1.65 0 3.3 0 5 0 C5 1.32 5 2.64 5 4 C5.66 4 6.32 4 7 4 C7 6.31 7 8.62 7 11 C6.01 11 5.02 11 4 11 C4 14.63 4 18.26 4 22 C1.69 22 -0.62 22 -3 22 C-3 18.37 -3 14.74 -3 11 C-2.34 11 -1.68 11 -1 11 C-1.020625 9.9275 -1.04125 8.855 -1.0625 7.75 C-1.0142016 4.85209576 -0.86844115 2.71387859 0 0 Z " fill="#FDCB37" transform="translate(62,42)"/>
<path d="M0 0 C3.34249629 0.59687434 5.46436342 1.73603877 8 4 C8 4.66 8 5.32 8 6 C12.62 6 17.24 6 22 6 C22 6.66 22 7.32 22 8 C25.3 7.67 28.6 7.34 32 7 C31 9 31 9 29.3203125 9.66796875 C19.2160823 12.05918337 10.98191389 10.17994312 1.3659668 6.74145508 C-3.37968899 5.08516663 -7.02585063 4.41480596 -12 5 C-12.99 5.495 -12.99 5.495 -14 6 C-14.66 4.68 -15.32 3.36 -16 2 C-10.26157749 1.79586639 -5.39460953 1.72858546 0 4 C0 2.68 0 1.36 0 0 Z " fill="#ACDEF4" transform="translate(61,123)"/>
<path d="M0 0 C12.7673613 -0.17279136 12.7673613 -0.17279136 17 0.5625 C20.11972073 1.01745927 21.94601084 0.63920703 25 0 C28.33495585 -0.09263766 31.66456775 -0.05828911 35 0 C35 1.65 35 3.3 35 5 C34.13117188 4.98839844 33.26234375 4.97679687 32.3671875 4.96484375 C31.21476562 4.95582031 30.06234375 4.94679688 28.875 4.9375 C27.16957031 4.92009766 27.16957031 4.92009766 25.4296875 4.90234375 C22.01498852 4.91720252 22.01498852 4.91720252 18.7578125 5.56640625 C16 6 16 6 13 5 C10.93854893 4.931009 8.87498599 4.91532273 6.8125 4.9375 C5.72582031 4.94652344 4.63914062 4.95554687 3.51953125 4.96484375 C2.68808594 4.97644531 1.85664062 4.98804688 1 5 C0.67 3.35 0.34 1.7 0 0 Z " fill="#8CCDEB" transform="translate(47,30)"/>
<path d="M0 0 C5.61 0 11.22 0 17 0 C16.01 2.97 15.02 5.94 14 9 C10.37 9 6.74 9 3 9 C0 3.375 0 3.375 0 0 Z " fill="#07395D" transform="translate(92,46)"/>
<path d="M0 0 C5 2 5 2 8 4 C8.29296875 7.0390625 8.29296875 7.0390625 8.1875 10.625 C8.16042969 11.81351563 8.13335937 13.00203125 8.10546875 14.2265625 C8.07066406 15.14179687 8.03585938 16.05703125 8 17 C5.36 17 2.72 17 0 17 C0 11.39 0 5.78 0 0 Z " fill="#FFFDF8" transform="translate(61,74)"/>
<path d="M0 0 C0.98871094 -0.01417969 1.97742188 -0.02835937 2.99609375 -0.04296875 C5.5625 0.1875 5.5625 0.1875 7.5625 2.1875 C7.1875 4.8125 7.1875 4.8125 6.5625 7.1875 C1.42160687 9.03822153 -1.39281271 9.40224076 -6.4375 7.1875 C-6.48004356 5.18795254 -6.47830783 3.18708364 -6.4375 1.1875 C-4.69900372 -0.55099628 -2.3588363 0.01533704 0 0 Z " fill="#F7CA3A" transform="translate(64.4375,90.8125)"/>
<path d="M0 0 C0.78503906 0.00515625 1.57007813 0.0103125 2.37890625 0.015625 C3.55259766 0.00789063 3.55259766 0.00789063 4.75 0 C6.94140625 0.265625 6.94140625 0.265625 9.94140625 2.265625 C9.06640625 7.140625 9.06640625 7.140625 7.94140625 8.265625 C6.11024742 8.36413671 4.27520692 8.39535129 2.44140625 8.390625 C1.44109375 8.39320312 0.44078125 8.39578125 -0.58984375 8.3984375 C-3.05859375 8.265625 -3.05859375 8.265625 -4.05859375 7.265625 C-4.24609375 4.828125 -4.24609375 4.828125 -4.05859375 2.265625 C-2.05859375 0.265625 -2.05859375 0.265625 0 0 Z " fill="#F9CC3D" transform="translate(62.05859375,114.734375)"/>
<path d="M0 0 C0.70125 -0.01675781 1.4025 -0.03351562 2.125 -0.05078125 C2.74375 0.06910156 3.3625 0.18898438 4 0.3125 C6 3.3125 6 3.3125 5.75 5.875 C5 8.3125 5 8.3125 3 10.3125 C-0.13704316 10.646228 -2.16554166 10.84099028 -4.875 9.125 C-6.38332602 6.69491919 -6.36023622 5.12234248 -6 2.3125 C-3.67471713 -0.01278287 -3.15334102 0.01738975 0 0 Z " fill="#00355F" transform="translate(540,-0.3125)"/>
<path d="M0 0 C3.5 0.1875 3.5 0.1875 5.5 1.1875 C6.375 3.5 6.375 3.5 6.5 6.1875 C5 8.5625 5 8.5625 2.5 10.1875 C-3.82142857 9.86607143 -3.82142857 9.86607143 -5.5 8.1875 C-5.6875 5.25 -5.6875 5.25 -5.5 2.1875 C-3.5 0.1875 -3.5 0.1875 0 0 Z " fill="#00355F" transform="translate(327.5,-0.1875)"/>
<path d="M0 0 C1.81274414 0.01450195 1.81274414 0.01450195 3.66210938 0.02929688 C5.55606445 0.06700195 5.55606445 0.06700195 7.48828125 0.10546875 C9.39963867 0.12577148 9.39963867 0.12577148 11.34960938 0.14648438 C14.50042182 0.18188676 17.6503917 0.23127085 20.80078125 0.29296875 C20.80078125 0.62296875 20.80078125 0.95296875 20.80078125 1.29296875 C15.52078125 1.29296875 10.24078125 1.29296875 4.80078125 1.29296875 C4.47078125 2.61296875 4.14078125 3.93296875 3.80078125 5.29296875 C3.47078125 4.63296875 3.14078125 3.97296875 2.80078125 3.29296875 C2.14078125 3.29296875 1.48078125 3.29296875 0.80078125 3.29296875 C0.80078125 4.28296875 0.80078125 5.27296875 0.80078125 6.29296875 C-2.49921875 6.29296875 -5.79921875 6.29296875 -9.19921875 6.29296875 C-9.19921875 3.29296875 -9.19921875 3.29296875 -8.08666992 1.6237793 C-5.36317047 -0.29651504 -3.30668461 -0.04657302 0 0 Z " fill="#224A59" transform="translate(96.19921875,85.70703125)"/>
<path d="M0 0 C0.99 0 1.98 0 3 0 C3.33 1.65 3.66 3.3 4 5 C4.66 3.35 5.32 1.7 6 0 C7.65 0.33 9.3 0.66 11 1 C11.66 3.64 12.32 6.28 13 9 C12.01 9 11.02 9 10 9 C10 8.34 10 7.68 10 7 C8.68 7 7.36 7 6 7 C6 7.66 6 8.32 6 9 C4.02 9 2.04 9 0 9 C0 6.03 0 3.06 0 0 Z " fill="#D5DEE5" transform="translate(17,187)"/>
<path d="M0 0 C1.65 0 3.3 0 5 0 C5 3.96 5 7.92 5 12 C4.34 12 3.68 12 3 12 C2.67 12.66 2.34 13.32 2 14 C-0.64 14 -3.28 14 -6 14 C-6.33 13.01 -6.66 12.02 -7 11 C-4.69 11 -2.38 11 0 11 C0 7.37 0 3.74 0 0 Z " fill="#DCA739" transform="translate(66,53)"/>
<path d="M0 0 C1.65 0 3.3 0 5 0 C5 1.32 5 2.64 5 4 C5.66 4 6.32 4 7 4 C7 6.31 7 8.62 7 11 C4.36 11 1.72 11 -1 11 C-1.14285714 3.57142857 -1.14285714 3.57142857 0 0 Z " fill="#B7D7E4" transform="translate(62,42)"/>
<path d="M0 0 C3.7910119 1.44950455 7.3874638 3.15172566 11 5 C11 6.32 11 7.64 11 9 C7.04 9 3.08 9 -1 9 C-0.67 6.03 -0.34 3.06 0 0 Z " fill="#8CCDEB" transform="translate(114,172)"/>
<path d="M0 0 C0.33 2.97 0.66 5.94 1 9 C-2.96 9 -6.92 9 -11 9 C-10 5 -10 5 -7.6875 3.375 C-6.800625 2.92125 -5.91375 2.4675 -5 2 C-4.2575 1.608125 -3.515 1.21625 -2.75 0.8125 C-1 0 -1 0 0 0 Z " fill="#92D4F1" transform="translate(15,172)"/>
<path d="M0 0 C2.64 0.33 5.28 0.66 8 1 C8 1.66 8 2.32 8 3 C8.66 3 9.32 3 10 3 C9.67 3.99 9.34 4.98 9 6 C8.34 6 7.68 6 7 6 C5.2785865 6.63212561 3.57158046 7.30396699 1.875 8 C0.96492188 8.37125 0.05484375 8.7425 -0.8828125 9.125 C-1.58148438 9.41375 -2.28015625 9.7025 -3 10 C-3 8.02 -3 6.04 -3 4 C-2.01 3.67 -1.02 3.34 0 3 C0 2.01 0 1.02 0 0 Z " fill="#F0CE5C" transform="translate(61,156)"/>
<path d="M0 0 C0.1875 3.375 0.1875 3.375 0 7 C-3 9 -3 9 -5 8.875 C-7.54634201 7.76097537 -8.51322983 6.30449377 -10 4 C-9.34 4 -8.68 4 -8 4 C-7.87625 3.360625 -7.7525 2.72125 -7.625 2.0625 C-7.41875 1.381875 -7.2125 0.70125 -7 0 C-4.3333581 -1.33332095 -2.83319697 -0.67102033 0 0 Z " fill="#878C57" transform="translate(33,117)"/>
<path d="M0 0 C4.62 0 9.24 0 14 0 C14 0.66 14 1.32 14 2 C17.3 1.67 20.6 1.34 24 1 C23 3 23 3 21.3203125 3.66796875 C14.13262132 5.3689704 7.05468609 5.35156203 0 3 C0 2.01 0 1.02 0 0 Z " fill="#93CFEB" transform="translate(69,129)"/>
<path d="M0 0 C0.99 0.33 1.98 0.66 3 1 C3.99 1 4.98 1 6 1 C5.34 1.66 4.68 2.32 4 3 C1.7937067 8.19127836 1.4176938 13.43807734 1 19 C-1.31 18.67 -3.62 18.34 -6 18 C-5.01 17.67 -4.02 17.34 -3 17 C-2.01 11.39 -1.02 5.78 0 0 Z " fill="#A5D9F1" transform="translate(62,10)"/>
<path d="M0 0 C0.33 0 0.66 0 1 0 C1 4.29 1 8.58 1 13 C2.65 12.34 4.3 11.68 6 11 C6.99 12.485 6.99 12.485 8 14 C1.73960391 14.93213141 -3.02197063 15.20927172 -9 13 C-8.67 12.34 -8.34 11.68 -8 11 C-5.69 11.33 -3.38 11.66 -1 12 C-1.01160156 11.30132812 -1.02320313 10.60265625 -1.03515625 9.8828125 C-1.04417969 8.97273438 -1.05320312 8.06265625 -1.0625 7.125 C-1.07410156 6.22007813 -1.08570313 5.31515625 -1.09765625 4.3828125 C-1 2 -1 2 0 0 Z " fill="#1D4E74" transform="translate(64,17)"/>
<path d="M0 0 C0.66 0 1.32 0 2 0 C2.33 0.66 2.66 1.32 3 2 C5.74063515 3.10250307 8.52767226 3.9872494 11.3359375 4.90234375 C13.93700792 5.97404579 15.30114718 6.78686861 17 9 C17 9.66 17 10.32 17 11 C13.18243176 12.37432457 9.92744671 11.67975039 6 11 C6 10.67 6 10.34 6 10 C7.98 9.67 9.96 9.34 12 9 C10.9275 8.54625 9.855 8.0925 8.75 7.625 C8.11320312 7.34785156 7.47640625 7.07070312 6.8203125 6.78515625 C5.43219562 6.18641914 4.03115187 5.61755995 2.625 5.0625 C1 4 1 4 0.25 1.875 C0.1675 1.25625 0.085 0.6375 0 0 Z " fill="#37A9DD" transform="translate(50,128)"/>
<path d="M0 0 C1.98 0.99 1.98 0.99 4 2 C4 6.29 4 10.58 4 15 C2.68 15 1.36 15 0 15 C0 10.05 0 5.1 0 0 Z " fill="#B8DEF0" transform="translate(65,100)"/>
<path d="M0 0 C1.98 0.99 1.98 0.99 4 2 C4 6.29 4 10.58 4 15 C2.68 15 1.36 15 0 15 C0 10.05 0 5.1 0 0 Z " fill="#BADEED" transform="translate(65,76)"/>
<path d="M0 0 C1.98 0 3.96 0 6 0 C5.979375 0.928125 5.95875 1.85625 5.9375 2.8125 C5.84230396 6.02286011 5.84230396 6.02286011 7 9 C4.69 9 2.38 9 0 9 C0 6.03 0 3.06 0 0 Z " fill="#DDE4E9" transform="translate(52,187)"/>
<path d="M0 0 C1.32 0 2.64 0 4 0 C4.66 2.97 5.32 5.94 6 9 C4.02 8.34 2.04 7.68 0 7 C0 7.66 0 8.32 0 9 C-0.99 9 -1.98 9 -3 9 C-2.01 6.03 -1.02 3.06 0 0 Z " fill="#E4EAEE" transform="translate(117,187)"/>
<path d="M0 0 C0.66 0 1.32 0 2 0 C2.66 0.66 3.32 1.32 4 2 C4.66 1.67 5.32 1.34 6 1 C6.66 3.97 7.32 6.94 8 10 C7.34 10 6.68 10 6 10 C5.67 10.66 5.34 11.32 5 12 C5 11.34 5 10.68 5 10 C4.01 9.67 3.02 9.34 2 9 C0.29466783 5.67908998 0 3.81507216 0 0 Z " fill="#CFEEFB" transform="translate(92,112)"/>
<path d="M0 0 C1.32 0 2.64 0 4 0 C4.66 2.97 5.32 5.94 6 9 C5.34 9 4.68 9 4 9 C4 8.34 4 7.68 4 7 C2.68 7 1.36 7 0 7 C0 7.66 0 8.32 0 9 C-0.66 9 -1.32 9 -2 9 C-1.125 2.25 -1.125 2.25 0 0 Z " fill="#EBEFF2" transform="translate(74,187)"/>
<path d="M0 0 C3.875 0.875 3.875 0.875 5 2 C5.33 1.34 5.66 0.68 6 0 C6.99 0 7.98 0 9 0 C8.01 2.97 7.02 5.94 6 9 C3 8 3 8 2.05078125 6.15234375 C1.80714844 5.42144531 1.56351563 4.69054687 1.3125 3.9375 C1.06113281 3.20402344 0.80976562 2.47054687 0.55078125 1.71484375 C0.36902344 1.14894531 0.18726563 0.58304688 0 0 Z " fill="#DCE3E9" transform="translate(34,187)"/>
<path d="M0 0 C0.99 0 1.98 0 3 0 C3.33 0.66 3.66 1.32 4 2 C4.66 1.34 5.32 0.68 6 0 C6.99 0.33 7.98 0.66 9 1 C7.68 3.64 6.36 6.28 5 9 C4.34 9 3.68 9 3 9 C2.01 6.03 1.02 3.06 0 0 Z " fill="#DFE5EB" transform="translate(93,187)"/>
<path d="M0 0 C0.66 0.99 1.32 1.98 2 3 C3.32 3 4.64 3 6 3 C5.67 3.99 5.34 4.98 5 6 C-2.26 6 -9.52 6 -17 6 C-17 5.67 -17 5.34 -17 5 C-12.38 4.67 -7.76 4.34 -3 4 C-2.67 3.01 -2.34 2.02 -2 1 C-1.34 0.67 -0.68 0.34 0 0 Z " fill="#C6AD40" transform="translate(99,88)"/>
<path d="M0 0 C0.99 0 1.98 0 3 0 C3 0.99 3 1.98 3 3 C3.66 3 4.32 3 5 3 C5 2.01 5 1.02 5 0 C5.99 0 6.98 0 8 0 C7.44271087 3.34373475 6.64826111 6.03312999 5 9 C4.34 9 3.68 9 3 9 C0 3.375 0 3.375 0 0 Z " fill="#DDE4EA" transform="translate(7,187)"/>
<path d="M0 0 C1.65 0 3.3 0 5 0 C5 2.97 5 5.94 5 9 C3.35 9 1.7 9 0 9 C0 6.03 0 3.06 0 0 Z " fill="#E4EAEE" transform="translate(45,187)"/>
<path d="M0 0 C1.65 0 3.3 0 5 0 C5.625 3.375 5.625 3.375 6 7 C5.34 7.66 4.68 8.32 4 9 C2.68 9 1.36 9 0 9 C0.33 8.01 0.66 7.02 1 6 C1.66 6.33 2.32 6.66 3 7 C3 6.34 3 5.68 3 5 C2.01 4.67 1.02 4.34 0 4 C0 2.68 0 1.36 0 0 Z " fill="#E3E9ED" transform="translate(82,187)"/>
<path d="M0 0 C0.66 0 1.32 0 2 0 C-0.00951192 7.14493126 -6.16273522 12.75471652 -12 17 C-12.33 16.01 -12.66 15.02 -13 14 C-12.22076172 13.48953125 -12.22076172 13.48953125 -11.42578125 12.96875 C-6.68897014 9.6766225 -3.73670243 6.63426258 -1.0078125 1.5390625 C-0.67523438 1.03117188 -0.34265625 0.52328125 0 0 Z " fill="#84CBEB" transform="translate(101,130)"/>
<path d="M0 0 C2.31 0 4.62 0 7 0 C7 0.66 7 1.32 7 2 C6.34 2 5.68 2 5 2 C5 4.31 5 6.62 5 9 C4.01 9 3.02 9 2 9 C2 6.69 2 4.38 2 2 C1.34 2 0.68 2 0 2 C0 1.34 0 0.68 0 0 Z " fill="#D9E1E7" transform="translate(107,187)"/>
<path d="M0 0 C2.64 0.33 5.28 0.66 8 1 C6.02 1.99 6.02 1.99 4 3 C4.66 4.98 5.32 6.96 6 9 C5.01 9.495 5.01 9.495 4 10 C0 3.375 0 3.375 0 0 Z " fill="#99D6F1" transform="translate(22,125)"/>
<path d="M0 0 C0 1.98 0 3.96 0 6 C-2.8125 6.6875 -2.8125 6.6875 -6 7 C-7.69921875 5.51953125 -7.69921875 5.51953125 -9 4 C-7.68872739 3.3309224 -6.3759455 2.66480194 -5.0625 2 C-4.33160156 1.62875 -3.60070312 1.2575 -2.84765625 0.875 C-1 0 -1 0 0 0 Z " fill="#DBAB3D" transform="translate(70,93)"/>
<path d="M0 0 C0.99 0 1.98 0 3 0 C3 2.97 3 5.94 3 9 C2.01 9 1.02 9 0 9 C0 6.03 0 3.06 0 0 Z " fill="#E3E9ED" transform="translate(103,187)"/>
<path d="M0 0 C0.99 0 1.98 0 3 0 C3 2.97 3 5.94 3 9 C2.01 9 1.02 9 0 9 C0 6.03 0 3.06 0 0 Z " fill="#E3E9ED" transform="translate(60,187)"/>
<path d="M0 0 C0.625 1.8125 0.625 1.8125 1 4 C0.01 5.485 0.01 5.485 -1 7 C-1 8.32 -1 9.64 -1 11 C-4.875 9.25 -4.875 9.25 -6 7 C-5.195625 6.21625 -4.39125 5.4325 -3.5625 4.625 C-1.01309583 2.28017144 -1.01309583 2.28017144 0 0 Z " fill="#A37B40" transform="translate(30,32)"/>
<path d="M0 0 C1.98 0 3.96 0 6 0 C6 0.66 6 1.32 6 2 C5.34 2 4.68 2 4 2 C4 4.31 4 6.62 4 9 C3.34 9 2.68 9 2 9 C2 6.69 2 4.38 2 2 C1.34 2 0.68 2 0 2 C0 1.34 0 0.68 0 0 Z " fill="#FAFBFB" transform="translate(65,187)"/>
<path d="M0 0 C2.10546875 0.42578125 2.10546875 0.42578125 4 1 C3.0479279 2.00596297 2.08812654 3.00461563 1.125 4 C0.59132813 4.556875 0.05765625 5.11375 -0.4921875 5.6875 C-2 7 -2 7 -4 7 C-3.59316505 4.64035727 -3.10185661 3.14065912 -1.6875 1.1875 C-1.130625 0.795625 -0.57375 0.40375 0 0 Z " fill="#CEEDFA" transform="translate(108,112)"/>
<path d="M0 0 C1.65 0 3.3 0 5 0 C5 1.65 5 3.3 5 5 C3.02 5 1.04 5 -1 5 C-0.67 3.35 -0.34 1.7 0 0 Z " fill="#DAB44A" transform="translate(62,42)"/>
<path d="M0 0 C1.32 0.66 2.64 1.32 4 2 C4 3.32 4 4.64 4 6 C-0.75 5.25 -0.75 5.25 -3 3 C-2.01 3 -1.02 3 0 3 C0 2.01 0 1.02 0 0 Z " fill="#A8DCF3" transform="translate(65,125)"/>
<path d="M0 0 C0 1.65 0 3.3 0 5 C-3.2830098 6.6415049 -6.42545033 5.51888624 -10 5 C-9.443125 4.731875 -8.88625 4.46375 -8.3125 4.1875 C-6.6114292 3.31397716 -4.9488699 2.36443296 -3.3125 1.375 C-1 0 -1 0 0 0 Z " fill="#DEA939" transform="translate(72,68)"/>
<path d="M0 0 C1.32 0 2.64 0 4 0 C4 1.98 4 3.96 4 6 C2.68 6 1.36 6 0 6 C0 4.02 0 2.04 0 0 Z " fill="#FFFDF6" transform="translate(61,47)"/>
<path d="M0 0 C0 1.98 0 3.96 0 6 C-0.66 4.68 -1.32 3.36 -2 2 C-2.99 2 -3.98 2 -5 2 C-5.33 2.66 -5.66 3.32 -6 4 C-6.66 4 -7.32 4 -8 4 C-7.625 2.0625 -7.625 2.0625 -7 0 C-4.3333581 -1.33332095 -2.83319697 -0.67102033 0 0 Z " fill="#E7C03B" transform="translate(33,117)"/>
<path d="M0 0 C1.32 0 2.64 0 4 0 C4.33 1.32 4.66 2.64 5 4 C4.34 4 3.68 4 3 4 C3 4.66 3 5.32 3 6 C2.34 6 1.68 6 1 6 C0.34 4.35 -0.32 2.7 -1 1 C-0.67 0.67 -0.34 0.34 0 0 Z " fill="#C0CDD7" transform="translate(117,187)"/>
<path d="M0 0 C0.66 0 1.32 0 2 0 C1.50168276 3.68754757 0.89932357 5.60490662 -2 8 C-2.66 7.67 -3.32 7.34 -4 7 C-1.125 1.125 -1.125 1.125 0 0 Z " fill="#DA4131" transform="translate(33,31)"/>
<path d="M0 0 C1.98 0.495 1.98 0.495 4 1 C3.67 2.32 3.34 3.64 3 5 C2.34 5 1.68 5 1 5 C1 5.66 1 6.32 1 7 C0.34 7 -0.32 7 -1 7 C-0.67 4.69 -0.34 2.38 0 0 Z " fill="#CCD7DF" transform="translate(73,189)"/>
<path d="M0 0 C1.65 0.33 3.3 0.66 5 1 C5 1.66 5 2.32 5 3 C4.34 3 3.68 3 3 3 C3 3.66 3 4.32 3 5 C1.68 4.67 0.36 4.34 -1 4 C-0.67 2.68 -0.34 1.36 0 0 Z " fill="#C0CDD7" transform="translate(23,187)"/>
<path d="M0 0 C0 1.98 0 3.96 0 6 C-2.31 5.67 -4.62 5.34 -7 5 C-6.01 4.67 -5.02 4.34 -4 4 C-4 3.34 -4 2.68 -4 2 C-1 0 -1 0 0 0 Z " fill="#92CBE6" transform="translate(63,23)"/>
<path d="M0 0 C0 1.98 0 3.96 0 6 C-0.66 5.34 -1.32 4.68 -2 4 C-4.58354218 3.83312552 -4.58354218 3.83312552 -7 4 C-3.375 0 -3.375 0 0 0 Z " fill="#DBA839" transform="translate(72,160)"/>
<path d="M0 0 C0.66 0 1.32 0 2 0 C4.125 4.625 4.125 4.625 3 8 C2.34 7.67 1.68 7.34 1 7 C0.59270772 4.67843403 0.25561323 2.3431213 0 0 Z " fill="#DCF2FC" transform="translate(92,112)"/>
<path d="M0 0 C0 1.65 0 3.3 0 5 C-2.64 4.67 -5.28 4.34 -8 4 C-2 0 -2 0 0 0 Z " fill="#E7AA36" transform="translate(70,118)"/>
<path d="M0 0 C3.465 1.485 3.465 1.485 7 3 C6.01 4.32 5.02 5.64 4 7 C3.67 5.68 3.34 4.36 3 3 C2.34 3 1.68 3 1 3 C0.67 3.66 0.34 4.32 0 5 C0 3.35 0 1.7 0 0 Z " fill="#8BCAE7" transform="translate(91,109)"/>
<path d="M0 0 C1.32 0.33 2.64 0.66 4 1 C4 2.32 4 3.64 4 5 C2.68 4.67 1.36 4.34 0 4 C0 2.68 0 1.36 0 0 Z " fill="#F6F7F2" transform="translate(61,123)"/>
<path d="M0 0 C2.64 0 5.28 0 8 0 C7.67 0.99 7.34 1.98 7 3 C4.69 2.34 2.38 1.68 0 1 C0 0.67 0 0.34 0 0 Z " fill="#8ACAE6" transform="translate(23,121)"/>
</svg>
